<svg width="24" height="25" viewBox="0 0 24 25" fill="none" xmlns="http://www.w3.org/2000/svg">
<path opacity="0.4" d="M16.19 2.5H7.81C4.17 2.5 2 4.67 2 8.31V16.68C2 20.33 4.17 22.5 7.81 22.5H16.18C19.82 22.5 21.99 20.33 21.99 16.69V8.31C22 4.67 19.83 2.5 16.19 2.5Z" fill="#09814A"/>
<path d="M16.8314 9.90998C16.7614 9.73998 16.6214 9.59998 16.4514 9.52998C16.3714 9.49998 16.2814 9.47998 16.1914 9.47998H14.3314C13.9414 9.47998 13.6314 9.78998 13.6314 10.18C13.6314 10.57 13.9414 10.88 14.3314 10.88H14.5114L12.4014 12.99L11.3814 11.47C11.2614 11.3 11.0814 11.18 10.8714 11.16C10.6514 11.14 10.4614 11.21 10.3114 11.36L7.33141 14.34C7.06141 14.61 7.06141 15.05 7.33141 15.33C7.47141 15.47 7.64141 15.53 7.82141 15.53C8.00141 15.53 8.18141 15.46 8.31141 15.33L10.6914 12.95L11.7114 14.47C11.8314 14.64 12.0114 14.76 12.2214 14.78C12.4414 14.8 12.6314 14.73 12.7814 14.58L15.5014 11.86V12.04C15.5014 12.43 15.8114 12.74 16.2014 12.74C16.5914 12.74 16.9014 12.43 16.9014 12.04V10.17C16.8814 10.08 16.8714 9.98998 16.8314 9.90998Z" fill="#09814A"/>
</svg>
