<svg width="24" height="25" viewBox="0 0 24 25" fill="none" xmlns="http://www.w3.org/2000/svg">
<path opacity="0.4" d="M16.19 2.5H7.81C4.17 2.5 2 4.67 2 8.31V16.68C2 20.33 4.17 22.5 7.81 22.5H16.18C19.82 22.5 21.99 20.33 21.99 16.69V8.31C22 4.67 19.83 2.5 16.19 2.5Z" fill="#FD151B"/>
<path d="M16.8797 12.97C16.8797 12.58 16.5697 12.27 16.1797 12.27C15.7897 12.27 15.4797 12.58 15.4797 12.97V13.15L12.7597 10.43C12.6097 10.28 12.4097 10.21 12.1997 10.23C11.9897 10.25 11.7997 10.36 11.6897 10.54L10.6697 12.06L8.30969 9.68004C8.03969 9.41004 7.59969 9.41004 7.31969 9.68004C7.04969 9.95004 7.04969 10.39 7.31969 10.67L10.2997 13.65C10.4497 13.8 10.6497 13.87 10.8597 13.85C11.0697 13.83 11.2597 13.72 11.3697 13.54L12.3897 12.02L14.4997 14.13H14.3197C13.9297 14.13 13.6197 14.44 13.6197 14.83C13.6197 15.22 13.9297 15.53 14.3197 15.53H16.1797C16.2697 15.53 16.3597 15.51 16.4497 15.48C16.6197 15.41 16.7597 15.27 16.8297 15.1C16.8697 15.01 16.8797 14.92 16.8797 14.83V12.97Z" fill="#FD151B"/>
</svg>
