<svg width="24" height="25" viewBox="0 0 24 25" fill="none" xmlns="http://www.w3.org/2000/svg">
<path opacity="0.4" d="M17 21H7C4 21 2 19.5 2 16V9C2 5.5 4 4 7 4H17C20 4 22 5.5 22 9V16C22 19.5 20 21 17 21Z" fill="#292D32"/>
<path d="M11.9988 13.37C11.1588 13.37 10.3088 13.11 9.6588 12.58L6.5288 10.08C6.2088 9.81997 6.14881 9.34997 6.4088 9.02997C6.66881 8.70997 7.13881 8.64997 7.45881 8.90997L10.5888 11.41C11.3488 12.02 12.6388 12.02 13.3988 11.41L16.5288 8.90997C16.8488 8.64997 17.3288 8.69997 17.5788 9.02997C17.8388 9.34997 17.7888 9.82997 17.4588 10.08L14.3288 12.58C13.6888 13.11 12.8388 13.37 11.9988 13.37Z" fill="#292D32"/>
</svg>
