<svg width="24" height="25" viewBox="0 0 24 25"  xmlns="http://www.w3.org/2000/svg">
<path d="M20.97 1.5H18.03C16.76 1.5 16 2.26 16 3.53V6.47C16 7.74 16.76 8.5 18.03 8.5H20.97C22.24 8.5 23 7.74 23 6.47V3.53C23 2.26 22.24 1.5 20.97 1.5ZM21.19 4.81C21.07 4.93 20.91 4.99 20.75 4.99C20.59 4.99 20.43 4.93 20.31 4.81L20.13 4.63V6.87C20.13 7.22 19.85 7.5 19.5 7.5C19.15 7.5 18.87 7.22 18.87 6.87V4.63L18.69 4.81C18.45 5.05 18.05 5.05 17.81 4.81C17.57 4.57 17.57 4.17 17.81 3.93L19.06 2.68C19.11 2.63 19.18 2.59 19.25 2.56C19.27 2.55 19.29 2.55 19.31 2.54C19.36 2.52 19.41 2.51 19.47 2.51C19.49 2.51 19.51 2.51 19.53 2.51C19.6 2.51 19.66 2.52 19.73 2.55C19.74 2.55 19.74 2.55 19.75 2.55C19.82 2.58 19.88 2.62 19.93 2.67C19.94 2.68 19.94 2.68 19.95 2.68L21.2 3.93C21.44 4.17 21.44 4.57 21.19 4.81Z" />
<path opacity="0.4" d="M22 8.27002V9.50002H2V8.04002C2 5.75002 3.86 3.90002 6.15 3.90002H16V6.47002C16 7.74002 16.76 8.50002 18.03 8.50002H20.97C21.37 8.50002 21.71 8.43002 22 8.27002Z" />
<path d="M2 9.5V16.96C2 19.25 3.86 21.1 6.15 21.1H17.85C20.14 21.1 22 19.25 22 16.96V9.5H2ZM8 17.75H6C5.59 17.75 5.25 17.41 5.25 17C5.25 16.59 5.59 16.25 6 16.25H8C8.41 16.25 8.75 16.59 8.75 17C8.75 17.41 8.41 17.75 8 17.75ZM14.5 17.75H10.5C10.09 17.75 9.75 17.41 9.75 17C9.75 16.59 10.09 16.25 10.5 16.25H14.5C14.91 16.25 15.25 16.59 15.25 17C15.25 17.41 14.91 17.75 14.5 17.75Z" />
</svg>
