<svg width="24" height="25" viewBox="0 0 24 25" xmlns="http://www.w3.org/2000/svg">
<path opacity="0.4" d="M12 22.5C17.5228 22.5 22 18.0228 22 12.5C22 6.97715 17.5228 2.5 12 2.5C6.47715 2.5 2 6.97715 2 12.5C2 18.0228 6.47715 22.5 12 22.5Z" />
<path d="M8.00043 15.25C7.81043 15.25 7.62043 15.18 7.47043 15.03L5.47043 13.03C5.18043 12.74 5.18043 12.2599 5.47043 11.9699L7.47043 9.96994C7.76043 9.67994 8.24043 9.67994 8.53043 9.96994C8.82043 10.2599 8.82043 10.74 8.53043 11.03L7.06043 12.5L8.53043 13.9699C8.82043 14.2599 8.82043 14.74 8.53043 15.03C8.38043 15.18 8.19043 15.25 8.00043 15.25Z" />
<path d="M16.0004 15.25C15.8104 15.25 15.6204 15.18 15.4704 15.03C15.1804 14.74 15.1804 14.2599 15.4704 13.9699L16.9404 12.5L15.4704 11.03C15.1804 10.74 15.1804 10.2599 15.4704 9.96994C15.7604 9.67994 16.2404 9.67994 16.5304 9.96994L18.5304 11.9699C18.8204 12.2599 18.8204 12.74 18.5304 13.03L16.5304 15.03C16.3804 15.18 16.1904 15.25 16.0004 15.25Z" />
<path d="M11.0001 15.5801C10.9001 15.5801 10.8001 15.5601 10.7101 15.5201C10.3301 15.3601 10.1501 14.9201 10.3201 14.5301L12.3201 9.86004C12.4801 9.48004 12.9201 9.30002 13.3001 9.47002C13.6801 9.63002 13.8601 10.0701 13.6901 10.4601L11.6901 15.1301C11.5701 15.4101 11.2901 15.5801 11.0001 15.5801Z"/>
</svg>
