<svg width="24" height="25" viewBox="0 0 24 25" xmlns="http://www.w3.org/2000/svg">
<path fill-rule="evenodd" clip-rule="evenodd" d="M3.46447 3.96447C2 5.42893 2 7.78595 2 12.5C2 17.214 2 19.5711 3.46447 21.0355C4.92893 22.5 7.28595 22.5 12 22.5C16.714 22.5 19.0711 22.5 20.5355 21.0355C22 19.5711 22 17.214 22 12.5C22 7.78595 22 5.42893 20.5355 3.96447C19.0711 2.5 16.714 2.5 12 2.5C7.28595 2.5 4.92893 2.5 3.46447 3.96447ZM17 12.75C17.4142 12.75 17.75 13.0858 17.75 13.5V18.5C17.75 18.9142 17.4142 19.25 17 19.25C16.5858 19.25 16.25 18.9142 16.25 18.5V13.5C16.25 13.0858 16.5858 12.75 17 12.75ZM12.75 6.5C12.75 6.08579 12.4142 5.75 12 5.75C11.5858 5.75 11.25 6.08579 11.25 6.5V18.5C11.25 18.9142 11.5858 19.25 12 19.25C12.4142 19.25 12.75 18.9142 12.75 18.5V6.5ZM7 8.75C7.41421 8.75 7.75 9.08579 7.75 9.5V18.5C7.75 18.9142 7.41421 19.25 7 19.25C6.58579 19.25 6.25 18.9142 6.25 18.5V9.5C6.25 9.08579 6.58579 8.75 7 8.75Z" />
</svg>
