<svg width="24" height="25" viewBox="0 0 24 25" fill="none" xmlns="http://www.w3.org/2000/svg">
<path d="M20.5412 19.5398C20.3912 19.6898 20.2012 19.7598 20.0112 19.7598C19.8212 19.7598 19.6312 19.6898 19.4812 19.5398L14.5312 14.5898L15.0612 14.0598L15.5912 13.5298L20.5412 18.4798C20.8312 18.7698 20.8312 19.2498 20.5412 19.5398Z" fill="#4318FF"/>
<path opacity="0.4" d="M6.46938 9.78009L12.2694 15.5801C12.6594 15.9701 12.6594 16.6001 12.2694 16.9901L11.3694 17.9001C10.5594 18.7001 9.27937 18.7001 8.47937 17.9001L4.13938 13.5601C3.34938 12.7701 3.34938 11.4801 4.13938 10.6801L5.04938 9.77009C5.43938 9.39009 6.07938 9.39009 6.46938 9.78009Z" fill="#4318FF"/>
<path d="M18.5895 10.6899L14.7795 14.4899C14.3795 14.8899 13.7395 14.8899 13.3395 14.4899L7.56953 8.71994C7.16953 8.31994 7.16953 7.67994 7.56953 7.27994L11.3795 3.46994C12.1695 2.67994 13.4595 2.67994 14.2595 3.46994L18.5995 7.80994C19.3795 8.59994 19.3795 9.87994 18.5895 10.6899Z" fill="#4318FF"/>
<path d="M8 22.25H2C1.59 22.25 1.25 21.91 1.25 21.5C1.25 21.09 1.59 20.75 2 20.75H8C8.41 20.75 8.75 21.09 8.75 21.5C8.75 21.91 8.41 22.25 8 22.25Z" fill="#4318FF"/>
</svg>
