<svg width="24" height="25" viewBox="0 0 24 25"  xmlns="http://www.w3.org/2000/svg">
<path opacity="0.4" d="M21.99 6.52002C22.01 6.76002 21.99 7.01001 21.93 7.26001L18.56 20.79C18.32 21.8 17.42 22.5 16.38 22.5H3.23998C1.72998 22.5 0.66 21.02 1.1 19.57L5.30999 6.03998C5.59999 5.09998 6.47001 4.46002 7.45001 4.46002H19.75C20.71 4.46002 21.49 5.03002 21.82 5.83002C21.92 6.04002 21.97 6.28002 21.99 6.52002Z" />
<path d="M22.99 20.12C23.09 21.41 22.07 22.5 20.78 22.5H16.38C17.42 22.5 18.32 21.8 18.56 20.79L21.93 7.26001C21.99 7.01001 22.01 6.76002 21.99 6.52002L22 6.5L22.99 20.12Z" />
<path d="M9.68001 7.63001C9.62001 7.63001 9.56002 7.61999 9.50002 7.60999C9.10002 7.50999 8.85003 7.11002 8.95003 6.70002L9.99001 2.38001C10.09 1.98001 10.49 1.74002 10.9 1.83002C11.3 1.93002 11.55 2.33 11.45 2.74L10.41 7.06C10.33 7.4 10.02 7.63001 9.68001 7.63001Z" />
<path d="M16.3799 7.63998C16.3299 7.63998 16.2699 7.63997 16.2199 7.61997C15.8199 7.52996 15.56 7.12995 15.64 6.72995L16.5799 2.38998C16.6699 1.97998 17.0699 1.72997 17.4699 1.80997C17.8699 1.89997 18.1299 2.29998 18.0499 2.69998L17.1099 7.03995C17.0399 7.39995 16.7299 7.63998 16.3799 7.63998Z" />
<path d="M15.7 13.25H7.69995C7.28995 13.25 6.94995 12.91 6.94995 12.5C6.94995 12.09 7.28995 11.75 7.69995 11.75H15.7C16.11 11.75 16.45 12.09 16.45 12.5C16.45 12.91 16.11 13.25 15.7 13.25Z" />
<path d="M14.7 17.25H6.69995C6.28995 17.25 5.94995 16.91 5.94995 16.5C5.94995 16.09 6.28995 15.75 6.69995 15.75H14.7C15.11 15.75 15.45 16.09 15.45 16.5C15.45 16.91 15.11 17.25 14.7 17.25Z" />
</svg>
