<svg width="24" height="25" viewBox="0 0 24 25" fill="none" xmlns="http://www.w3.org/2000/svg">
<path opacity="0.4" d="M20 8.75V18.5C20 21.5 18.21 22.5 16 22.5H8C5.79 22.5 4 21.5 4 18.5V8.75C4 5.5 5.79 4.75 8 4.75C8 5.37 8.24997 5.93 8.65997 6.34C9.06997 6.75 9.63 7 10.25 7H13.75C14.99 7 16 5.99 16 4.75C18.21 4.75 20 5.5 20 8.75Z" fill="#4318FF"/>
<path d="M16 4.75C16 5.99 14.99 7 13.75 7H10.25C9.63 7 9.06997 6.75 8.65997 6.34C8.24997 5.93 8 5.37 8 4.75C8 3.51 9.01 2.5 10.25 2.5H13.75C14.37 2.5 14.93 2.75 15.34 3.16C15.75 3.57 16 4.13 16 4.75Z" fill="#4318FF"/>
<path d="M12 14.25H8C7.59 14.25 7.25 13.91 7.25 13.5C7.25 13.09 7.59 12.75 8 12.75H12C12.41 12.75 12.75 13.09 12.75 13.5C12.75 13.91 12.41 14.25 12 14.25Z" fill="#4318FF"/>
<path d="M16 18.25H8C7.59 18.25 7.25 17.91 7.25 17.5C7.25 17.09 7.59 16.75 8 16.75H16C16.41 16.75 16.75 17.09 16.75 17.5C16.75 17.91 16.41 18.25 16 18.25Z" fill="#4318FF"/>
</svg>
