<svg width="24" height="25" viewBox="0 0 24 25"  xmlns="http://www.w3.org/2000/svg">
<path d="M7 6.25C6.59 6.25 6.25 5.91 6.25 5.5V2.5C6.25 2.09 6.59 1.75 7 1.75C7.41 1.75 7.75 2.09 7.75 2.5V5.5C7.75 5.91 7.41 6.25 7 6.25Z" />
<path d="M15 6.25C14.59 6.25 14.25 5.91 14.25 5.5V2.5C14.25 2.09 14.59 1.75 15 1.75C15.41 1.75 15.75 2.09 15.75 2.5V5.5C15.75 5.91 15.41 6.25 15 6.25Z" />
<path opacity="0.4" d="M20 9V17.5C20 20.5 18.5 22.5 15 22.5H7C3.5 22.5 2 20.5 2 17.5V9C2 6 3.5 4 7 4H15C18.5 4 20 6 20 9Z" />
<path d="M13 12.25H7C6.59 12.25 6.25 11.91 6.25 11.5C6.25 11.09 6.59 10.75 7 10.75H13C13.41 10.75 13.75 11.09 13.75 11.5C13.75 11.91 13.41 12.25 13 12.25Z" />
<path d="M10 17.25H7C6.59 17.25 6.25 16.91 6.25 16.5C6.25 16.09 6.59 15.75 7 15.75H10C10.41 15.75 10.75 16.09 10.75 16.5C10.75 16.91 10.41 17.25 10 17.25Z" />
<path d="M21 14.13C20.11 13.42 18.98 13 17.75 13C16.52 13 15.37 13.43 14.47 14.16C13.26 15.11 12.5 16.6 12.5 18.25C12.5 19.23 12.78 20.17 13.26 20.95C13.63 21.56 14.11 22.09 14.68 22.5C15.54 23.13 16.6 23.5 17.75 23.5C19.08 23.5 20.28 23.01 21.2 22.19C21.61 21.85 21.96 21.43 22.24 20.95C22.72 20.17 23 19.23 23 18.25C23 16.58 22.22 15.09 21 14.13ZM17.75 20.75C17.75 19.37 16.63 18.25 15.25 18.25C16.63 18.25 17.75 17.13 17.75 15.75C17.75 17.13 18.87 18.25 20.25 18.25C18.87 18.25 17.75 19.37 17.75 20.75Z" />
</svg>
