<svg width="24" height="25" viewBox="0 0 24 25" xmlns="http://www.w3.org/2000/svg">
<path d="M20.8894 13.5V14.5H20.0194C19.2794 14.5 18.6794 15.1 18.6794 15.85V16.15C18.6794 16.9 18.0794 17.5 17.3294 17.5C16.5894 17.5 15.9894 16.9 15.9894 16.15V15.85C15.9894 15.1 15.3794 14.5 14.6394 14.5C13.8994 14.5 13.2994 15.1 13.2994 15.85V16.15C13.2994 16.9 12.6894 17.5 11.9494 17.5C11.2094 17.5 10.5994 16.9 10.5994 16.15V15.85C10.5994 15.1 9.99938 14.5 9.25938 14.5C8.51938 14.5 7.90938 15.1 7.90938 15.85V16.15C7.90938 16.9 7.30938 17.5 6.56938 17.5C5.81938 17.5 5.21937 16.9 5.21937 16.15V15.83C5.21937 15.09 4.62938 14.49 3.89938 14.48H3.10938V13.5C3.10938 12.12 4.14938 10.95 5.55938 10.61C5.83938 10.54 6.12938 10.5 6.43938 10.5H17.5594C17.8694 10.5 18.1594 10.54 18.4394 10.61C19.8494 10.95 20.8894 12.12 20.8894 13.5Z" />
<path opacity="0.4" d="M18.4386 7.67V10.61C18.1586 10.54 17.8686 10.5 17.5586 10.5H6.43859C6.12859 10.5 5.83859 10.54 5.55859 10.61V7.67C5.55859 6.47 6.63859 5.5 7.97859 5.5H16.0186C17.3586 5.5 18.4386 6.47 18.4386 7.67Z" />
<path d="M8.75 4.05002V5.51002H7.98C7.72 5.51002 7.48 5.54002 7.25 5.60002V4.05002C7.25 3.70002 7.59 3.40002 8 3.40002C8.41 3.40002 8.75 3.70002 8.75 4.05002Z"/>
<path d="M16.75 3.82996V5.59996C16.52 5.52996 16.28 5.49996 16.02 5.49996H15.25V3.82996C15.25 3.41996 15.59 3.07996 16 3.07996C16.41 3.07996 16.75 3.41996 16.75 3.82996Z" />
<path d="M12.75 3.32V5.5H11.25V3.32C11.25 2.87 11.59 2.5 12 2.5C12.41 2.5 12.75 2.87 12.75 3.32Z" />
<path opacity="0.4" d="M21.25 21H20.89V14.5H20.02C19.28 14.5 18.68 15.1 18.68 15.85V16.15C18.68 16.9 18.08 17.5 17.33 17.5C16.59 17.5 15.99 16.9 15.99 16.15V15.85C15.99 15.1 15.38 14.5 14.64 14.5C13.9 14.5 13.3 15.1 13.3 15.85V16.15C13.3 16.9 12.69 17.5 11.95 17.5C11.21 17.5 10.6 16.9 10.6 16.15V15.85C10.6 15.1 10 14.5 9.26 14.5C8.52 14.5 7.91 15.1 7.91 15.85V16.15C7.91 16.9 7.31 17.5 6.57 17.5C5.82 17.5 5.22 16.9 5.22 16.15V15.83C5.22 15.09 4.63 14.49 3.9 14.48H3.11V21H2.75C2.34 21 2 21.34 2 21.75C2 22.16 2.34 22.5 2.75 22.5H3.11H20.89H21.25C21.66 22.5 22 22.16 22 21.75C22 21.34 21.66 21 21.25 21Z" />
</svg>
