<svg width="24" height="25" viewBox="0 0 24 25" xmlns="http://www.w3.org/2000/svg">
<path opacity="0.4" d="M20.8319 8.51002L14.2819 3.27002C13.0019 2.25002 11.0019 2.24002 9.73192 3.26002L3.18192 8.51002C2.24192 9.26002 1.67192 10.76 1.87192 11.94L3.13192 19.48C3.42192 21.17 4.99192 22.5 6.70192 22.5H17.3019C18.9919 22.5 20.5919 21.14 20.8819 19.47L22.1419 11.93C22.3219 10.76 21.7519 9.26002 20.8319 8.51002Z" />
<path d="M12 19.25C11.59 19.25 11.25 18.91 11.25 18.5V15.5C11.25 15.09 11.59 14.75 12 14.75C12.41 14.75 12.75 15.09 12.75 15.5V18.5C12.75 18.91 12.41 19.25 12 19.25Z" />
</svg>
