<svg width="172" height="61" viewBox="0 0 172 61" fill="none" xmlns="http://www.w3.org/2000/svg">
<g filter="url(#filter0_d_301_22436)">
<g clip-path="url(#clip0_301_22436)">
<rect x="4" y="4" width="164" height="53" rx="6" fill="white"/>
<path d="M44.8447 27.504V26.24H49.0687V27.504H44.8447ZM54.2847 32.624C54.3488 32.624 54.4447 32.688 54.4447 33.328C54.4447 33.952 54.3488 34 54.2847 34H53.8048C52.8608 34 52.1888 33.696 51.8848 33.056C51.5007 33.696 50.7968 34 49.8687 34H44.2207C42.3007 34 41.3887 32.896 41.3887 31.232V28.848H42.7167V31.056C42.7167 32.016 43.1807 32.624 44.3007 32.624H49.8687C50.7008 32.624 51.2288 32.176 51.2288 31.456V28.848H52.5568V31.408C52.5568 32.208 53.0048 32.624 53.8527 32.624H54.2847ZM56.3606 32.624C55.8806 32.16 55.7046 31.552 55.7046 30.912C55.7046 29.104 56.9526 27.76 58.8246 27.76C59.5926 27.76 60.3126 27.936 61.1606 28.464L60.6966 29.552C59.9606 29.216 59.3686 29.104 58.8246 29.104C57.8006 29.104 57.0326 29.856 57.0326 30.832C57.0326 31.872 57.6886 32.624 58.7286 32.624H61.5926L61.4646 34H54.3606C54.2966 34 54.2006 33.952 54.2006 33.328C54.2006 32.688 54.2966 32.624 54.3606 32.624H56.3606ZM67.2922 32.624C67.3722 32.624 67.4522 32.688 67.4522 33.328C67.4522 33.952 67.3722 34 67.2922 34H66.8762C65.2282 34 64.3962 32.96 64.3962 31.2V23.648H65.7242V31.136C65.7242 32.128 66.1242 32.624 66.9402 32.624H67.2922ZM68.628 32.624C69.588 32.624 70.116 32.128 70.116 31.36V28.848H71.46V31.36C71.46 32.16 71.908 32.624 72.884 32.624C73.844 32.624 74.372 32.128 74.372 31.36V28.848H75.7V31.36C75.7 32.16 76.164 32.624 77.06 32.624C77.956 32.624 78.436 32.16 78.436 31.36V28.848H79.764V31.328C79.764 33.008 78.708 34 77.06 34C75.956 34 75.284 33.648 74.98 33.008C74.596 33.648 73.892 34 72.884 34C71.7 34 71.028 33.648 70.724 33.008C70.34 33.648 69.636 34 68.628 34H67.38C67.316 34 67.22 33.952 67.22 33.328C67.22 32.688 67.316 32.624 67.38 32.624H68.628ZM88.24 33.008C87.504 32.48 87.2 31.696 87.2 30.8C87.2 28.992 88.448 27.648 90.32 27.648C91.088 27.648 91.808 27.824 92.64 28.352L92.192 29.44C91.456 29.104 90.864 28.992 90.32 28.992C89.296 28.992 88.528 29.744 88.528 30.72C88.528 31.76 89.184 32.512 90.224 32.512H93.088L92.96 33.888H89.936C88.592 33.888 87.648 34.864 87.648 36.16C87.648 37.52 88.432 38.176 90.448 38.176H93.44L93.312 39.552H90.368C87.552 39.552 86.32 38.448 86.32 36.208C86.32 34.832 87.056 33.568 88.24 33.008ZM103.687 32.624C103.767 32.624 103.847 32.688 103.847 33.328C103.847 33.952 103.767 34 103.687 34H102.151C101.959 36.448 100.391 37.904 98.0235 37.904H96.0555L95.9275 36.528H98.0395C99.7515 36.528 100.839 35.552 100.855 34H99.2555C97.0315 34 96.1515 33.104 96.1515 31.2C96.1515 29.184 97.3995 27.808 99.1915 27.808C101.047 27.808 102.183 29.136 102.183 31.28V32.624H103.687ZM97.4795 31.12C97.4795 32.208 97.9435 32.624 99.3355 32.624H100.855V31.376C100.855 29.904 100.247 29.152 99.1115 29.152C98.1195 29.152 97.4795 29.952 97.4795 31.12ZM104.131 32.624C104.899 32.624 105.267 32.288 105.267 31.6V30.944C105.267 28.896 106.419 27.648 108.323 27.648C110.227 27.648 111.283 28.784 111.283 30.88V31.328C111.283 32.256 111.667 32.624 112.387 32.624H112.787C112.851 32.624 112.947 32.688 112.947 33.328C112.947 33.952 112.851 34 112.787 34H112.387C111.475 34 110.867 33.696 110.579 32.976C110.131 33.664 109.251 34 108.275 34C107.155 34 106.403 33.648 106.035 33.008C105.683 33.696 105.123 34 104.131 34H103.763C103.699 34 103.603 33.952 103.603 33.328C103.603 32.688 103.699 32.624 103.763 32.624H104.131ZM109.955 30.88C109.955 29.632 109.411 28.992 108.275 28.992C107.139 28.992 106.595 29.632 106.595 30.944C106.595 31.984 107.203 32.624 108.275 32.624C109.379 32.624 109.955 32.064 109.955 30.88ZM114.314 28.8L114.49 27.408H118.282C120.186 27.408 121.018 28.256 121.626 30.784L120.362 31.552C120.698 32.368 121.13 32.624 121.962 32.624H123.018C123.082 32.624 123.178 32.704 123.178 33.328C123.178 33.984 123.082 34 123.018 34H121.914C120.65 34 119.994 33.568 119.37 32.176L118.266 32.864C116.906 33.712 115.834 34 113.946 34H112.874C112.81 34 112.714 33.952 112.714 33.328C112.714 32.688 112.81 32.624 112.874 32.624H113.994C115.61 32.624 116.522 32.4 117.642 31.76L120.074 30.336C119.738 29.168 119.21 28.8 118.058 28.8H114.314ZM117.53 37.36H115.834V36.016H117.53V37.36ZM123.462 32.624C124.23 32.624 124.598 32.288 124.598 31.6V30.944C124.598 28.896 125.75 27.648 127.654 27.648C129.558 27.648 130.614 28.784 130.614 30.88C130.614 32.864 129.478 34 127.606 34C126.486 34 125.734 33.648 125.366 33.008C125.014 33.696 124.454 34 123.462 34H123.094C123.03 34 122.934 33.952 122.934 33.328C122.934 32.688 123.03 32.624 123.094 32.624H123.462ZM129.286 30.88C129.286 29.632 128.742 28.992 127.606 28.992C126.47 28.992 125.926 29.632 125.926 30.944C125.926 31.984 126.534 32.624 127.606 32.624C128.71 32.624 129.286 32.064 129.286 30.88Z" fill="#3E3838"/>
</g>
<rect x="4.5" y="4.5" width="163" height="52" rx="5.5" stroke="#3B82F6"/>
</g>
<defs>
<filter id="filter0_d_301_22436" x="0" y="0" width="172" height="61" filterUnits="userSpaceOnUse" color-interpolation-filters="sRGB">
<feFlood flood-opacity="0" result="BackgroundImageFix"/>
<feColorMatrix in="SourceAlpha" type="matrix" values="0 0 0 0 0 0 0 0 0 0 0 0 0 0 0 0 0 0 127 0" result="hardAlpha"/>
<feMorphology radius="4" operator="dilate" in="SourceAlpha" result="effect1_dropShadow_301_22436"/>
<feOffset/>
<feComposite in2="hardAlpha" operator="out"/>
<feColorMatrix type="matrix" values="0 0 0 0 0.231373 0 0 0 0 0.509804 0 0 0 0 0.964706 0 0 0 0.25 0"/>
<feBlend mode="normal" in2="BackgroundImageFix" result="effect1_dropShadow_301_22436"/>
<feBlend mode="normal" in="SourceGraphic" in2="effect1_dropShadow_301_22436" result="shape"/>
</filter>
<clipPath id="clip0_301_22436">
<rect x="4" y="4" width="164" height="53" rx="6" fill="white"/>
</clipPath>
</defs>
</svg>
