<svg width="14" height="15" viewBox="0 0 14 15" fill="none" xmlns="http://www.w3.org/2000/svg">
<path fill-rule="evenodd" clip-rule="evenodd" d="M7.3092 10.4347C7.26856 10.4754 7.22028 10.5078 7.16713 10.5298C7.11398 10.5519 7.05699 10.5632 6.99945 10.5632C6.9419 10.5632 6.88492 10.5519 6.83177 10.5298C6.77862 10.5078 6.73034 10.4754 6.6897 10.4347L1.4397 5.1847C1.35755 5.10255 1.3114 4.99113 1.3114 4.87495C1.3114 4.75877 1.35755 4.64735 1.4397 4.5652C1.52185 4.48305 1.63327 4.4369 1.74945 4.4369C1.86563 4.4369 1.97705 4.48305 2.0592 4.5652L6.99945 9.50633L11.9397 4.5652C12.0218 4.48305 12.1333 4.4369 12.2494 4.4369C12.3656 4.4369 12.477 4.48305 12.5592 4.5652C12.6413 4.64735 12.6875 4.75877 12.6875 4.87495C12.6875 4.99113 12.6413 5.10255 12.5592 5.1847L7.3092 10.4347Z" fill="#374151"/>
</svg>
