<svg width="40" height="40" viewBox="0 0 40 40" fill="none" xmlns="http://www.w3.org/2000/svg">
<path opacity="0.4" d="M19.9987 36.6667C29.2034 36.6667 36.6654 29.2048 36.6654 20C36.6654 10.7953 29.2034 3.33337 19.9987 3.33337C10.794 3.33337 3.33203 10.7953 3.33203 20C3.33203 29.2048 10.794 36.6667 19.9987 36.6667Z" fill="#2F9BFF"/>
<path d="M26.1818 26.5501C25.9651 26.5501 25.7484 26.5001 25.5484 26.3667L20.3818 23.2834C19.0984 22.5167 18.1484 20.8334 18.1484 19.3501V12.5167C18.1484 11.8334 18.7151 11.2667 19.3984 11.2667C20.0818 11.2667 20.6484 11.8334 20.6484 12.5167V19.3501C20.6484 19.9501 21.1484 20.8334 21.6651 21.1334L26.8318 24.2167C27.4318 24.5667 27.6151 25.3334 27.2651 25.9334C27.0151 26.3334 26.5984 26.5501 26.1818 26.5501Z" fill="#2F9BFF"/>
</svg>
