<svg width="17" height="17" viewBox="0 0 17 17" fill="none" xmlns="http://www.w3.org/2000/svg">
<path d="M4.19332 13.5133C3.78666 13.5133 3.40666 13.3733 3.13332 13.1133C2.78666 12.7867 2.61999 12.2933 2.67999 11.76L2.92666 9.59999C2.97332 9.19333 3.21999 8.65333 3.50666 8.35999L8.97999 2.56666C10.3467 1.11999 11.7733 1.07999 13.22 2.44666C14.6667 3.81333 14.7067 5.23999 13.34 6.68666L7.86666 12.48C7.58666 12.78 7.06666 13.06 6.65999 13.1267L4.51332 13.4933C4.39999 13.5 4.29999 13.5133 4.19332 13.5133ZM11.12 2.43999C10.6067 2.43999 10.16 2.75999 9.70666 3.23999L4.23332 9.03999C4.09999 9.17999 3.94666 9.51333 3.91999 9.70666L3.67332 11.8667C3.64666 12.0867 3.69999 12.2667 3.81999 12.38C3.93999 12.4933 4.11999 12.5333 4.33999 12.5L6.48666 12.1333C6.67999 12.1 6.99999 11.9267 7.13332 11.7867L12.6067 5.99333C13.4333 5.11333 13.7333 4.29999 12.5267 3.16666C11.9933 2.65333 11.5333 2.43999 11.12 2.43999Z" fill="white"/>
<path d="M12.059 7.79998C12.0457 7.79998 12.0257 7.79998 12.0123 7.79998C9.93232 7.59331 8.25899 6.01331 7.93899 3.94665C7.89899 3.67331 8.08565 3.41998 8.35899 3.37331C8.63232 3.33331 8.88565 3.51998 8.93232 3.79331C9.18565 5.40665 10.4923 6.64665 12.119 6.80665C12.3923 6.83331 12.5923 7.07998 12.5657 7.35331C12.5323 7.60665 12.3123 7.79998 12.059 7.79998Z" fill="white"/>
<path d="M14.5 15.6666H2.5C2.22667 15.6666 2 15.44 2 15.1666C2 14.8933 2.22667 14.6666 2.5 14.6666H14.5C14.7733 14.6666 15 14.8933 15 15.1666C15 15.44 14.7733 15.6666 14.5 15.6666Z" fill="white"/>
</svg>
