<svg width="40" height="40" viewBox="0 0 40 40" fill="none" xmlns="http://www.w3.org/2000/svg">
<path opacity="0.4" d="M26.982 3.33337H13.0154C6.9487 3.33337 3.33203 6.95004 3.33203 13.0167V26.9667C3.33203 33.05 6.9487 36.6667 13.0154 36.6667H26.9654C33.032 36.6667 36.6487 33.05 36.6487 26.9834V13.0167C36.6654 6.95004 33.0487 3.33337 26.982 3.33337Z" fill="#FFD12F"/>
<path d="M25.8326 16.8834C27.563 16.8834 28.9659 15.4805 28.9659 13.75C28.9659 12.0195 27.563 10.6167 25.8326 10.6167C24.1021 10.6167 22.6992 12.0195 22.6992 13.75C22.6992 15.4805 24.1021 16.8834 25.8326 16.8834Z" fill="#FFD12F"/>
<path d="M14.1685 16.8834C15.899 16.8834 17.3018 15.4805 17.3018 13.75C17.3018 12.0195 15.899 10.6167 14.1685 10.6167C12.438 10.6167 11.0352 12.0195 11.0352 13.75C11.0352 15.4805 12.438 16.8834 14.1685 16.8834Z" fill="#FFD12F"/>
<path d="M25.9995 21.5333H13.9995C12.8328 21.5333 11.8828 22.4833 11.8828 23.6667C11.8828 28.15 15.5328 31.8 20.0161 31.8C24.4995 31.8 28.1495 28.15 28.1495 23.6667C28.1328 22.5 27.1661 21.5333 25.9995 21.5333Z" fill="#FFD12F"/>
</svg>
