<svg width="40" height="40" viewBox="0 0 40 40" fill="none" xmlns="http://www.w3.org/2000/svg">
<path opacity="0.4" d="M26.982 3.33337H13.0154C6.9487 3.33337 3.33203 6.95004 3.33203 13.0167V26.9667C3.33203 33.05 6.9487 36.6667 13.0154 36.6667H26.9654C33.032 36.6667 36.6487 33.05 36.6487 26.9834V13.0167C36.6654 6.95004 33.0487 3.33337 26.982 3.33337Z" fill="#FF2F2F"/>
<path d="M17.7344 15.8334C17.4177 15.8334 17.101 15.7167 16.851 15.4667C15.6677 14.2834 13.7344 14.2834 12.551 15.4667C12.0677 15.95 11.2677 15.95 10.7844 15.4667C10.301 14.9834 10.301 14.1834 10.7844 13.7C12.9344 11.55 16.451 11.55 18.6177 13.7C19.101 14.1834 19.101 14.9834 18.6177 15.4667C18.3677 15.7167 18.051 15.8334 17.7344 15.8334Z" fill="#FF2F2F"/>
<path d="M22.2654 15.8334C21.9487 15.8334 21.632 15.7167 21.382 15.4667C20.8987 14.9834 20.8987 14.1834 21.382 13.7C23.532 11.55 27.0487 11.55 29.2154 13.7C29.6987 14.1834 29.6987 14.9834 29.2154 15.4667C28.732 15.95 27.932 15.95 27.4487 15.4667C26.2654 14.2834 24.332 14.2834 23.1487 15.4667C22.9154 15.7167 22.5987 15.8334 22.2654 15.8334Z" fill="#FF2F2F"/>
<path d="M20.0005 19.8667C15.5172 19.8667 11.8672 23.5167 11.8672 28C11.8672 29.1667 12.8172 30.1334 13.9839 30.1334H25.9839C27.1505 30.1334 28.1005 29.1834 28.1005 28C28.1339 23.5167 24.4839 19.8667 20.0005 19.8667Z" fill="#FF2F2F"/>
</svg>
