<svg width="25" height="25" viewBox="0 0 25 25" fill="none" xmlns="http://www.w3.org/2000/svg">
<path d="M16.625 23.25H3.625C2.665 23.25 1.875 22.46 1.875 21.5V8.5C1.875 4.08 4.205 1.75 8.625 1.75H16.625C21.045 1.75 23.375 4.08 23.375 8.5V16.5C23.375 20.92 21.045 23.25 16.625 23.25ZM8.625 3.25C5.045 3.25 3.375 4.92 3.375 8.5V21.5C3.375 21.64 3.485 21.75 3.625 21.75H16.625C20.205 21.75 21.875 20.08 21.875 16.5V8.5C21.875 4.92 20.205 3.25 16.625 3.25H8.625Z" fill="#6B7280"/>
<path d="M17.625 10.75H7.625C7.215 10.75 6.875 10.41 6.875 10C6.875 9.59 7.215 9.25 7.625 9.25H17.625C18.035 9.25 18.375 9.59 18.375 10C18.375 10.41 18.035 10.75 17.625 10.75Z" fill="#292D32"/>
<path d="M14.625 15.75H7.625C7.215 15.75 6.875 15.41 6.875 15C6.875 14.59 7.215 14.25 7.625 14.25H14.625C15.035 14.25 15.375 14.59 15.375 15C15.375 15.41 15.035 15.75 14.625 15.75Z" fill="#292D32"/>
</svg>
