<svg width="71" height="29" viewBox="0 0 71 29" fill="none" xmlns="http://www.w3.org/2000/svg">
<rect width="71" height="29" rx="10" fill="#F7F5FF"/>
<path d="M11.191 14.536C11.191 14.216 11.2337 13.912 11.319 13.624C11.4043 13.336 11.5377 13.0427 11.719 12.744C11.9003 12.4453 12.1297 12.136 12.407 11.816C12.6843 11.496 13.015 11.1387 13.399 10.744L12.663 9.992L13.367 9.24C14.0283 9.90133 14.5777 10.472 15.015 10.952C15.463 11.4213 15.8203 11.848 16.087 12.232C16.3643 12.616 16.5617 12.9733 16.679 13.304C16.7963 13.624 16.855 13.9653 16.855 14.328C16.855 14.712 16.7803 15.0693 16.631 15.4C16.4923 15.72 16.2897 16.0027 16.023 16.248C15.767 16.4827 15.463 16.6693 15.111 16.808C14.759 16.936 14.375 17 13.959 17C13.543 17 13.1643 16.9413 12.823 16.824C12.4817 16.696 12.1883 16.5253 11.943 16.312C11.7083 16.088 11.5217 15.8267 11.383 15.528C11.255 15.2293 11.191 14.8987 11.191 14.536ZM15.831 14.312C15.831 14.1093 15.799 13.912 15.735 13.72C15.6817 13.5173 15.5857 13.3093 15.447 13.096C15.3083 12.8827 15.1217 12.648 14.887 12.392C14.663 12.1253 14.375 11.8213 14.023 11.48C13.639 11.8533 13.3243 12.184 13.079 12.472C12.8443 12.7493 12.663 13 12.535 13.224C12.407 13.448 12.3217 13.6507 12.279 13.832C12.2363 14.0133 12.215 14.1947 12.215 14.376C12.215 14.8027 12.3643 15.1653 12.663 15.464C12.9723 15.752 13.4097 15.896 13.975 15.896C14.2417 15.896 14.487 15.8533 14.711 15.768C14.9457 15.6827 15.143 15.5707 15.303 15.432C15.4737 15.2827 15.6017 15.112 15.687 14.92C15.783 14.728 15.831 14.5253 15.831 14.312ZM21.7359 15.896C21.9705 15.896 22.1679 15.8693 22.3279 15.816C22.4879 15.752 22.6159 15.6773 22.7119 15.592C22.8185 15.496 22.8932 15.3947 22.9359 15.288C22.9892 15.1813 23.0159 15.08 23.0159 14.984C23.0159 14.8773 22.9945 14.7333 22.9519 14.552C22.9092 14.3707 22.8292 14.104 22.7119 13.752C22.6052 13.4 22.4452 12.9307 22.2319 12.344C22.0292 11.7573 21.7625 11.0053 21.4319 10.088L22.4079 9.688L24.1199 14.568C24.2905 15.048 24.4879 15.3893 24.7119 15.592C24.9359 15.7947 25.2505 15.896 25.6559 15.896H25.8799C26.1145 15.896 26.2319 16.0773 26.2319 16.44C26.2319 16.8133 26.1145 17 25.8799 17H25.6559C25.3039 17 24.9679 16.936 24.6479 16.808C24.3279 16.6693 24.0345 16.376 23.7679 15.928C23.5439 16.3653 23.2612 16.6533 22.9199 16.792C22.5892 16.9307 22.2265 17 21.8319 17H18.3919L18.3119 15.896H21.7359ZM30.003 11.88C29.4697 11.88 29.043 12.0507 28.723 12.392C28.4137 12.7333 28.259 13.1493 28.259 13.64C28.259 13.9173 28.3177 14.1627 28.435 14.376C28.5523 14.5893 28.7017 14.7813 28.883 14.952C29.0643 15.1227 29.2617 15.272 29.475 15.4C29.699 15.528 29.9177 15.64 30.131 15.736C30.291 15.64 30.467 15.5333 30.659 15.416C30.851 15.288 31.027 15.1387 31.187 14.968C31.347 14.7973 31.4803 14.6053 31.587 14.392C31.6937 14.1787 31.747 13.944 31.747 13.688C31.747 13.144 31.5923 12.7067 31.283 12.376C30.9737 12.0453 30.547 11.88 30.003 11.88ZM25.875 17C25.7363 17 25.6457 16.9573 25.603 16.872C25.5497 16.7867 25.523 16.6533 25.523 16.472C25.523 16.28 25.5497 16.136 25.603 16.04C25.6457 15.944 25.7363 15.896 25.875 15.896H28.947C28.4457 15.6187 28.0403 15.2827 27.731 14.888C27.4323 14.4933 27.283 14.0293 27.283 13.496C27.283 13.144 27.347 12.808 27.475 12.488C27.603 12.1573 27.7897 11.8693 28.035 11.624C28.2803 11.3787 28.5737 11.1813 28.915 11.032C29.267 10.8827 29.667 10.808 30.115 10.808C30.5523 10.808 30.931 10.8827 31.251 11.032C31.5817 11.1813 31.8537 11.384 32.067 11.64C32.291 11.8853 32.4563 12.1627 32.563 12.472C32.6697 12.7813 32.723 13.096 32.723 13.416C32.723 14.3973 32.2217 15.224 31.219 15.896H34.051C34.467 15.896 34.787 15.8 35.011 15.608C35.2457 15.416 35.363 15.1653 35.363 14.856C35.363 14.7067 35.3257 14.5467 35.251 14.376C35.187 14.1947 35.0697 14.008 34.899 13.816L32.003 10.456L32.771 9.736L35.715 13.16C35.9923 13.5013 36.1897 13.8213 36.307 14.12C36.4243 14.4187 36.483 14.712 36.483 15C36.483 15.576 36.275 16.056 35.859 16.44C35.4537 16.8133 34.8777 17 34.131 17H32.371C31.8803 17 31.443 16.9893 31.059 16.968C30.6857 16.936 30.387 16.8667 30.163 16.76C30.0137 16.824 29.827 16.872 29.603 16.904C29.3897 16.936 29.1657 16.9627 28.931 16.984C28.707 16.9947 28.483 17 28.259 17C28.0457 17 27.8643 17 27.715 17H25.875ZM40.5289 17C40.2515 17 39.9849 16.9627 39.7289 16.888C39.4729 16.8027 39.2435 16.664 39.0409 16.472C38.8489 16.28 38.6942 16.0293 38.5769 15.72C38.4595 15.4 38.4009 15.0053 38.4009 14.536V7.08H39.4409V14.344C39.4409 14.792 39.5369 15.1653 39.7289 15.464C39.9315 15.752 40.2569 15.896 40.7049 15.896H40.9769C41.2115 15.896 41.3289 16.0773 41.3289 16.44C41.3289 16.8133 41.2115 17 40.9769 17H40.5289ZM41.5604 15.896C42.0084 15.896 42.355 15.784 42.6004 15.56C42.8564 15.336 42.9844 15.0267 42.9844 14.632V12.424H44.0244V14.632C44.0244 14.8667 44.0617 15.064 44.1364 15.224C44.2217 15.384 44.3284 15.5173 44.4564 15.624C44.595 15.72 44.7444 15.7893 44.9044 15.832C45.075 15.8747 45.2457 15.896 45.4164 15.896C45.9177 15.896 46.2964 15.784 46.5524 15.56C46.819 15.336 46.9524 15.0267 46.9524 14.632V12.424H47.9924V14.632C47.9924 15.1013 48.1204 15.432 48.3764 15.624C48.643 15.8053 48.9417 15.896 49.2724 15.896C49.699 15.896 50.0244 15.784 50.2484 15.56C50.483 15.336 50.6004 15.0267 50.6004 14.632V12.424H51.6404V14.632C51.6404 14.8667 51.6777 15.064 51.7524 15.224C51.8377 15.384 51.939 15.5173 52.0564 15.624C52.1844 15.72 52.3284 15.7893 52.4884 15.832C52.6484 15.8747 52.8084 15.896 52.9684 15.896H53.2724C53.411 15.896 53.5017 15.944 53.5444 16.04C53.5977 16.1253 53.6244 16.2587 53.6244 16.44C53.6244 16.632 53.5977 16.776 53.5444 16.872C53.5017 16.9573 53.411 17 53.2724 17H52.9684C52.5844 17 52.227 16.9307 51.8964 16.792C51.5657 16.6427 51.2937 16.3653 51.0804 15.96C50.835 16.3653 50.547 16.6427 50.2164 16.792C49.8964 16.9307 49.5817 17 49.2724 17C48.8884 17 48.5364 16.9307 48.2164 16.792C47.8964 16.6427 47.6297 16.3653 47.4164 15.96C47.1817 16.3653 46.883 16.6427 46.5204 16.792C46.1684 16.9307 45.8004 17 45.4164 17C45.0004 17 44.6217 16.9307 44.2804 16.792C43.939 16.6427 43.6617 16.3653 43.4484 15.96C43.2137 16.3653 42.9257 16.6427 42.5844 16.792C42.243 16.9307 41.8804 17 41.4964 17H40.9844C40.8457 17 40.755 16.9573 40.7124 16.872C40.659 16.7867 40.6324 16.6533 40.6324 16.472C40.6324 16.28 40.659 16.136 40.7124 16.04C40.755 15.944 40.8457 15.896 40.9844 15.896H41.5604ZM48.1204 8.456H46.8404V7.336H48.1204V8.456ZM49.1284 10.376H47.8484V9.24H49.1284V10.376ZM47.0964 10.376H45.8164V9.24H47.0964V10.376ZM53.5216 15.896C53.9376 15.896 54.2523 15.7947 54.4656 15.592C54.679 15.3893 54.7856 15.1173 54.7856 14.776V14.168C54.7856 13.24 55.0203 12.5147 55.4896 11.992C55.9696 11.4693 56.631 11.208 57.4736 11.208C57.911 11.208 58.295 11.2773 58.6256 11.416C58.9563 11.5547 59.2283 11.752 59.4416 12.008C59.6656 12.264 59.831 12.568 59.9376 12.92C60.0443 13.272 60.0976 13.6613 60.0976 14.088C60.0976 15.0053 59.8576 15.72 59.3776 16.232C58.8976 16.744 58.2416 17 57.4096 17C56.983 17 56.5723 16.92 56.1776 16.76C55.783 16.5893 55.4736 16.2907 55.2496 15.864C55.1536 16.1093 55.0363 16.3067 54.8976 16.456C54.759 16.6053 54.615 16.7227 54.4656 16.808C54.3163 16.8827 54.1563 16.936 53.9856 16.968C53.8256 16.9893 53.671 17 53.5216 17H53.2656C53.127 17 53.0363 16.9573 52.9936 16.872C52.9403 16.7867 52.9136 16.6533 52.9136 16.472C52.9136 16.28 52.9403 16.136 52.9936 16.04C53.0363 15.944 53.127 15.896 53.2656 15.896H53.5216ZM59.0736 14.184C59.0736 13.6293 58.951 13.1813 58.7056 12.84C58.4603 12.488 58.039 12.312 57.4416 12.312C56.3323 12.312 55.7776 12.9573 55.7776 14.248C55.7776 14.792 55.927 15.2027 56.2256 15.48C56.535 15.7573 56.9296 15.896 57.4096 15.896C57.9536 15.896 58.3643 15.7467 58.6416 15.448C58.9296 15.1493 59.0736 14.728 59.0736 14.184Z" fill="#001EBC"/>
</svg>
