<svg width="20" height="20" viewBox="0 0 20 20" fill="none" xmlns="http://www.w3.org/2000/svg">
<path opacity="0.4" d="M5.9237 4.96667L13.4404 2.45834C16.8154 1.33334 18.6487 3.17501 17.532 6.55001L15.0237 14.0667C13.3404 19.125 10.5737 19.125 8.89037 14.0667L8.1487 11.8333L5.91537 11.0917C0.865365 9.41667 0.865365 6.65834 5.9237 4.96667Z" fill="white"/>
<path d="M10.1016 9.6917L13.2766 6.50836L10.1016 9.6917Z" fill="white"/>
<path d="M10.0995 10.3167C9.94115 10.3167 9.78281 10.2584 9.65781 10.1334C9.41615 9.89169 9.41615 9.49169 9.65781 9.25002L12.8245 6.06669C13.0661 5.82502 13.4661 5.82502 13.7078 6.06669C13.9495 6.30835 13.9495 6.70835 13.7078 6.95002L10.5411 10.1334C10.4161 10.25 10.2578 10.3167 10.0995 10.3167Z" fill="white"/>
</svg>
