<svg width="17" height="17" viewBox="0 0 17 17"  xmlns="http://www.w3.org/2000/svg">
<mask id="path-1-inside-1_756_21925" >
<path d="M14.4987 14H7.83203C7.5587 14 7.33203 13.7733 7.33203 13.5C7.33203 13.2267 7.5587 13 7.83203 13H14.4987C14.772 13 14.9987 13.2267 14.9987 13.5C14.9987 13.7733 14.772 14 14.4987 14Z"/>
</mask>
<path d="M14.4987 14H7.83203C7.5587 14 7.33203 13.7733 7.33203 13.5C7.33203 13.2267 7.5587 13 7.83203 13H14.4987C14.772 13 14.9987 13.2267 14.9987 13.5C14.9987 13.7733 14.772 14 14.4987 14Z" />
<path d="M14.4987 13H7.83203V15H14.4987V13ZM7.83203 13C8.11098 13 8.33203 13.221 8.33203 13.5H6.33203C6.33203 14.3256 7.00641 15 7.83203 15V13ZM8.33203 13.5C8.33203 13.779 8.11098 14 7.83203 14V12C7.00641 12 6.33203 12.6744 6.33203 13.5H8.33203ZM7.83203 14H14.4987V12H7.83203V14ZM14.4987 14C14.2197 14 13.9987 13.779 13.9987 13.5H15.9987C15.9987 12.6744 15.3243 12 14.4987 12V14ZM13.9987 13.5C13.9987 13.221 14.2197 13 14.4987 13V15C15.3243 15 15.9987 14.3256 15.9987 13.5H13.9987Z" fill="#6B7280" mask="url(#path-1-inside-1_756_21925)"/>
<path d="M14.4987 9.33337H7.83203C7.5587 9.33337 7.33203 9.10671 7.33203 8.83337C7.33203 8.56004 7.5587 8.33337 7.83203 8.33337H14.4987C14.772 8.33337 14.9987 8.56004 14.9987 8.83337C14.9987 9.10671 14.772 9.33337 14.4987 9.33337Z" />
<path d="M14.4987 4.66663H7.83203C7.5587 4.66663 7.33203 4.43996 7.33203 4.16663C7.33203 3.89329 7.5587 3.66663 7.83203 3.66663H14.4987C14.772 3.66663 14.9987 3.89329 14.9987 4.16663C14.9987 4.43996 14.772 4.66663 14.4987 4.66663Z" />
<path d="M3.165 5.33329C3.03833 5.33329 2.91167 5.28663 2.81167 5.18663L2.145 4.51996C1.95167 4.32663 1.95167 4.00663 2.145 3.81329C2.33833 3.61996 2.65833 3.61996 2.85167 3.81329L3.165 4.12663L4.81167 2.47996C5.005 2.28663 5.325 2.28663 5.51833 2.47996C5.71167 2.67329 5.71167 2.99329 5.51833 3.18663L3.51833 5.18663C3.41833 5.28663 3.29167 5.33329 3.165 5.33329Z" />
<path d="M3.165 10C3.03833 10 2.91167 9.95338 2.81167 9.85337L2.145 9.18671C1.95167 8.99337 1.95167 8.67338 2.145 8.48004C2.33833 8.28671 2.65833 8.28671 2.85167 8.48004L3.165 8.79337L4.81167 7.14671C5.005 6.95338 5.325 6.95338 5.51833 7.14671C5.71167 7.34004 5.71167 7.66004 5.51833 7.85338L3.51833 9.85337C3.41833 9.95338 3.29167 10 3.165 10Z" />
<path d="M3.165 14.6667C3.03833 14.6667 2.91167 14.62 2.81167 14.52L2.145 13.8533C1.95167 13.66 1.95167 13.34 2.145 13.1467C2.33833 12.9533 2.65833 12.9533 2.85167 13.1467L3.165 13.46L4.81167 11.8133C5.005 11.62 5.325 11.62 5.51833 11.8133C5.71167 12.0067 5.71167 12.3267 5.51833 12.52L3.51833 14.52C3.41833 14.62 3.29167 14.6667 3.165 14.6667Z" />
</svg>
