<svg width="40" height="40" viewBox="0 0 40 40" fill="none" xmlns="http://www.w3.org/2000/svg">
<path opacity="0.4" d="M26.982 3.33337H13.0154C6.9487 3.33337 3.33203 6.95004 3.33203 13.0167V26.9667C3.33203 33.05 6.9487 36.6667 13.0154 36.6667H26.9654C33.032 36.6667 36.6487 33.05 36.6487 26.9834V13.0167C36.6654 6.95004 33.0487 3.33337 26.982 3.33337Z" fill="#972FFF"/>
<path d="M28.1302 20.7834C28.1302 20.1334 27.6135 19.6167 26.9635 19.6167C26.3135 19.6167 25.7969 20.1334 25.7969 20.7834V21.0834L21.2635 16.55C21.0135 16.3 20.6802 16.1834 20.3302 16.2167C19.9802 16.25 19.6635 16.4334 19.4802 16.7334L17.7802 19.2667L13.8469 15.3C13.3969 14.85 12.6635 14.85 12.1969 15.3C11.7469 15.75 11.7469 16.4834 12.1969 16.95L17.1635 21.9167C17.4135 22.1667 17.7469 22.2834 18.0969 22.25C18.4469 22.2167 18.7635 22.0334 18.9469 21.7334L20.6469 19.2L24.1635 22.7167H23.8635C23.2135 22.7167 22.6969 23.2334 22.6969 23.8834C22.6969 24.5334 23.2135 25.05 23.8635 25.05H26.9635C27.1135 25.05 27.2635 25.0167 27.4135 24.9667C27.6969 24.85 27.9302 24.6167 28.0469 24.3334C28.1135 24.1834 28.1302 24.0334 28.1302 23.8834V20.7834Z" fill="#972FFF"/>
</svg>
