<svg width="40" height="40" viewBox="0 0 40 40" fill="none" xmlns="http://www.w3.org/2000/svg">
<path opacity="0.4" d="M35.1349 14.3001V25.7C35.1349 27.5667 34.1349 29.3001 32.5182 30.2501L22.6182 35.9668C21.0016 36.9001 19.0016 36.9001 17.3682 35.9668L7.46823 30.2501C5.85156 29.3168 4.85156 27.5834 4.85156 25.7V14.3001C4.85156 12.4334 5.85156 10.7 7.46823 9.75003L17.3682 4.03337C18.9849 3.10004 20.9849 3.10004 22.6182 4.03337L32.5182 9.75003C34.1349 10.7 35.1349 12.4168 35.1349 14.3001Z" fill="#72FF30"/>
<path d="M20.0005 20C22.1452 20 23.8839 18.2614 23.8839 16.1167C23.8839 13.972 22.1452 12.2334 20.0005 12.2334C17.8558 12.2334 16.1172 13.972 16.1172 16.1167C16.1172 18.2614 17.8558 20 20.0005 20Z" fill="#72FF30"/>
<path d="M24.4673 27.7666C25.8173 27.7666 26.6006 26.2667 25.8506 25.15C24.7173 23.4667 22.5173 22.3334 20.0006 22.3334C17.4839 22.3334 15.2839 23.4667 14.1506 25.15C13.4006 26.2667 14.1839 27.7666 15.5339 27.7666H24.4673Z" fill="#72FF30"/>
</svg>
