<svg width="20" height="21" viewBox="0 0 20 21" fill="none" xmlns="http://www.w3.org/2000/svg">
<path fill-rule="evenodd" clip-rule="evenodd" d="M5.29279 7.79308C5.48031 7.60561 5.73462 7.50029 5.99979 7.50029C6.26495 7.50029 6.51926 7.60561 6.70679 7.79308L9.99979 11.0861L13.2928 7.79308C13.385 7.69757 13.4954 7.62139 13.6174 7.56898C13.7394 7.51657 13.8706 7.48898 14.0034 7.48783C14.1362 7.48668 14.2678 7.51198 14.3907 7.56226C14.5136 7.61254 14.6253 7.68679 14.7192 7.78069C14.8131 7.87458 14.8873 7.98623 14.9376 8.10913C14.9879 8.23202 15.0132 8.3637 15.012 8.49648C15.0109 8.62926 14.9833 8.76048 14.9309 8.88249C14.8785 9.00449 14.8023 9.11483 14.7068 9.20708L10.7068 13.2071C10.5193 13.3946 10.265 13.4999 9.99979 13.4999C9.73462 13.4999 9.48031 13.3946 9.29279 13.2071L5.29279 9.20708C5.10532 9.01955 5 8.76525 5 8.50008C5 8.23492 5.10532 7.98061 5.29279 7.79308Z" fill="white"/>
</svg>
