<svg width="24" height="24" viewBox="0 0 24 24" fill="none" xmlns="http://www.w3.org/2000/svg">
<rect width="24" height="24" rx="8" fill="#FD151B" fill-opacity="0.1"/>
<path d="M18.0466 7.48683C16.9733 7.38016 15.8999 7.30016 14.8199 7.24016V7.2335L14.6733 6.36683C14.5733 5.7535 14.4266 4.8335 12.8666 4.8335H11.1199C9.56661 4.8335 9.41994 5.7135 9.31328 6.36016L9.17328 7.2135C8.55328 7.2535 7.93328 7.2935 7.31328 7.3535L5.95328 7.48683C5.67328 7.5135 5.47328 7.76016 5.49994 8.0335C5.52661 8.30683 5.76661 8.50683 6.04661 8.48016L7.40661 8.34683C10.8999 8.00016 14.4199 8.1335 17.9533 8.48683C17.9733 8.48683 17.9866 8.48683 18.0066 8.48683C18.2599 8.48683 18.4799 8.2935 18.5066 8.0335C18.5266 7.76016 18.3266 7.5135 18.0466 7.48683Z" fill="#FD151B"/>
<path opacity="0.3991" d="M16.8202 9.4265C16.6602 9.25984 16.4402 9.1665 16.2135 9.1665H7.78683C7.56016 9.1665 7.33349 9.25984 7.18016 9.4265C7.02683 9.59317 6.94016 9.81984 6.95349 10.0532L7.36683 16.8932C7.44016 17.9065 7.53349 19.1732 9.86016 19.1732H14.1402C16.4668 19.1732 16.5602 17.9132 16.6335 16.8932L17.0468 10.0598C17.0602 9.81984 16.9735 9.59317 16.8202 9.4265Z" fill="#FD151B"/>
<path fill-rule="evenodd" clip-rule="evenodd" d="M10.3867 15.3335C10.3867 15.0574 10.6106 14.8335 10.8867 14.8335H13.1067C13.3829 14.8335 13.6067 15.0574 13.6067 15.3335C13.6067 15.6096 13.3829 15.8335 13.1067 15.8335H10.8867C10.6106 15.8335 10.3867 15.6096 10.3867 15.3335Z" fill="#FD151B"/>
<path fill-rule="evenodd" clip-rule="evenodd" d="M9.8335 12.6665C9.8335 12.3904 10.0574 12.1665 10.3335 12.1665H13.6668C13.943 12.1665 14.1668 12.3904 14.1668 12.6665C14.1668 12.9426 13.943 13.1665 13.6668 13.1665H10.3335C10.0574 13.1665 9.8335 12.9426 9.8335 12.6665Z" fill="#FD151B"/>
</svg>
