<svg width="24" height="24" viewBox="0 0 24 24" fill="none" xmlns="http://www.w3.org/2000/svg">
<rect width="24" height="24" rx="8" fill="#4318FF" fill-opacity="0.1"/>
<path opacity="0.4" d="M18 18.6665H6C5.72667 18.6665 5.5 18.4398 5.5 18.1665C5.5 17.8932 5.72667 17.6665 6 17.6665H18C18.2733 17.6665 18.5 17.8932 18.5 18.1665C18.5 18.4398 18.2733 18.6665 18 18.6665Z" fill="#4318FF"/>
<path opacity="0.4" d="M16.6799 6.31994C15.3866 5.02661 14.1199 4.99328 12.7932 6.31994L11.9866 7.12661C11.9199 7.19328 11.8932 7.29994 11.9199 7.39328C12.4266 9.15994 13.8399 10.5733 15.6066 11.0799C15.6332 11.0866 15.6599 11.0933 15.6866 11.0933C15.7599 11.0933 15.8266 11.0666 15.8799 11.0133L16.6799 10.2066C17.3399 9.55328 17.6599 8.91994 17.6599 8.27994C17.6666 7.61994 17.3466 6.97994 16.6799 6.31994Z" fill="#4318FF"/>
<path d="M14.4066 11.6865C14.2132 11.5932 14.0266 11.4999 13.8466 11.3932C13.6999 11.3065 13.5599 11.2132 13.4199 11.1132C13.3066 11.0399 13.1732 10.9332 13.0466 10.8265C13.0332 10.8199 12.9866 10.7799 12.9332 10.7265C12.7132 10.5399 12.4666 10.2999 12.2466 10.0332C12.2266 10.0199 12.1932 9.9732 12.1466 9.9132C12.0799 9.8332 11.9666 9.69987 11.8666 9.54654C11.7866 9.44654 11.6932 9.29987 11.6066 9.1532C11.4999 8.9732 11.4066 8.7932 11.3132 8.60654C11.2199 8.40654 11.1466 8.2132 11.0799 8.0332L6.89322 12.2199C6.80655 12.3065 6.72655 12.4732 6.70655 12.5865L6.34655 15.1399C6.27989 15.5932 6.40655 16.0199 6.68655 16.3065C6.92655 16.5399 7.25989 16.6665 7.61989 16.6665C7.69989 16.6665 7.77989 16.6599 7.85989 16.6465L10.4199 16.2865C10.5399 16.2665 10.7066 16.1865 10.7866 16.0999L14.9732 11.9132C14.7866 11.8465 14.6066 11.7732 14.4066 11.6865Z" fill="#4318FF"/>
</svg>
