<svg width="24" height="25" viewBox="0 0 24 25" fill="none" xmlns="http://www.w3.org/2000/svg">
<path d="M16.7502 4.06V2.5C16.7502 2.09 16.4102 1.75 16.0002 1.75C15.5902 1.75 15.2502 2.09 15.2502 2.5V4H8.75023V2.5C8.75023 2.09 8.41023 1.75 8.00023 1.75C7.59023 1.75 7.25023 2.09 7.25023 2.5V4.06C4.55023 4.31 3.24023 5.92 3.04023 8.31C3.02023 8.6 3.26023 8.84 3.54023 8.84H20.4602C20.7502 8.84 20.9902 8.59 20.9602 8.31C20.7602 5.92 19.4502 4.31 16.7502 4.06Z" fill="#3E3838"/>
<path opacity="0.4" d="M21 11.34V13.08C21 13.69 20.46 14.16 19.86 14.06C19.58 14.02 19.29 13.99 19 13.99C15.97 13.99 13.5 16.46 13.5 19.49C13.5 19.95 13.68 20.59 13.87 21.17C14.09 21.82 13.61 22.49 12.92 22.49H8C4.5 22.49 3 20.49 3 17.49V11.33C3 10.78 3.45 10.33 4 10.33H20C20.55 10.34 21 10.79 21 11.34Z" fill="#3E3838"/>
<path d="M19 15.5C16.79 15.5 15 17.29 15 19.5C15 20.25 15.21 20.96 15.58 21.56C16.27 22.72 17.54 23.5 19 23.5C20.46 23.5 21.73 22.72 22.42 21.56C22.79 20.96 23 20.25 23 19.5C23 17.29 21.21 15.5 19 15.5ZM21.07 19.07L18.94 21.04C18.8 21.17 18.61 21.24 18.43 21.24C18.24 21.24 18.05 21.17 17.9 21.02L16.91 20.03C16.62 19.74 16.62 19.26 16.91 18.97C17.2 18.68 17.68 18.68 17.97 18.97L18.45 19.45L20.05 17.97C20.35 17.69 20.83 17.71 21.11 18.01C21.39 18.31 21.37 18.78 21.07 19.07Z" fill="#3E3838"/>
<path d="M8.5 15.5C8.24 15.5 7.98 15.39 7.79 15.21C7.61 15.02 7.5 14.76 7.5 14.5C7.5 14.24 7.61 13.98 7.79 13.79C8.02 13.56 8.37 13.45 8.7 13.52C8.76 13.53 8.82 13.55 8.88 13.58C8.94 13.6 9 13.63 9.06 13.67C9.11 13.71 9.16 13.75 9.21 13.79C9.39 13.98 9.5 14.24 9.5 14.5C9.5 14.76 9.39 15.02 9.21 15.21C9.16 15.25 9.11 15.29 9.06 15.33C9 15.37 8.94 15.4 8.88 15.42C8.82 15.45 8.76 15.47 8.7 15.48C8.63 15.49 8.56 15.5 8.5 15.5Z" fill="#3E3838"/>
<path d="M12 15.5C11.74 15.5 11.48 15.39 11.29 15.21C11.11 15.02 11 14.76 11 14.5C11 14.24 11.11 13.98 11.29 13.79C11.67 13.42 12.34 13.42 12.71 13.79C12.89 13.98 13 14.24 13 14.5C13 14.76 12.89 15.02 12.71 15.21C12.52 15.39 12.26 15.5 12 15.5Z" fill="#3E3838"/>
<path d="M8.5 19C8.24 19 7.98 18.89 7.79 18.71C7.61 18.52 7.5 18.26 7.5 18C7.5 17.74 7.61 17.48 7.79 17.29C7.89 17.2 7.99 17.13 8.12 17.08C8.49 16.92 8.93 17.01 9.21 17.29C9.39 17.48 9.5 17.74 9.5 18C9.5 18.26 9.39 18.52 9.21 18.71C9.02 18.89 8.76 19 8.5 19Z" fill="#3E3838"/>
</svg>
