<svg width="24" height="25" viewBox="0 0 24 25" fill="none" xmlns="http://www.w3.org/2000/svg">
<path opacity="0.4" d="M12 22.5C17.5228 22.5 22 18.0228 22 12.5C22 6.97715 17.5228 2.5 12 2.5C6.47715 2.5 2 6.97715 2 12.5C2 18.0228 6.47715 22.5 12 22.5Z" fill="#3E3838"/>
<path d="M15.7096 16.43C15.5796 16.43 15.4496 16.4 15.3296 16.32L12.2296 14.47C11.4596 14.01 10.8896 13 10.8896 12.11V8.01001C10.8896 7.60001 11.2296 7.26001 11.6396 7.26001C12.0496 7.26001 12.3896 7.60001 12.3896 8.01001V12.11C12.3896 12.47 12.6896 13 12.9996 13.18L16.0996 15.03C16.4596 15.24 16.5696 15.7 16.3596 16.06C16.2096 16.3 15.9596 16.43 15.7096 16.43Z" fill="#3E3838"/>
</svg>
