<svg width="25" height="24" viewBox="0 0 25 24" xmlns="http://www.w3.org/2000/svg">
<path d="M15.625 12.95H8.625C8.215 12.95 7.875 12.61 7.875 12.2C7.875 11.79 8.215 11.45 8.625 11.45H15.625C16.035 11.45 16.375 11.79 16.375 12.2C16.375 12.61 16.035 12.95 15.625 12.95Z" />
<path d="M13.005 16.95H8.625C8.215 16.95 7.875 16.61 7.875 16.2C7.875 15.79 8.215 15.45 8.625 15.45H13.005C13.415 15.45 13.755 15.79 13.755 16.2C13.755 16.61 13.415 16.95 13.005 16.95Z" />
<path d="M14.625 6.75H10.625C9.665 6.75 7.875 6.75 7.875 4C7.875 1.25 9.665 1.25 10.625 1.25H14.625C15.585 1.25 17.375 1.25 17.375 4C17.375 4.96 17.375 6.75 14.625 6.75ZM10.625 2.75C9.635 2.75 9.375 2.75 9.375 4C9.375 5.25 9.635 5.25 10.625 5.25H14.625C15.875 5.25 15.875 4.99 15.875 4C15.875 2.75 15.615 2.75 14.625 2.75H10.625Z" />
<path d="M15.625 22.7501H9.625C4.005 22.7501 2.875 20.1701 2.875 16.0001V10.0001C2.875 5.44005 4.525 3.49005 8.585 3.28005C8.985 3.26005 9.355 3.57005 9.375 3.99005C9.395 4.41005 9.075 4.75005 8.665 4.77005C5.825 4.93005 4.375 5.78005 4.375 10.0001V16.0001C4.375 19.7001 5.105 21.2501 9.625 21.2501H15.625C20.145 21.2501 20.875 19.7001 20.875 16.0001V10.0001C20.875 5.78005 19.425 4.93005 16.585 4.77005C16.175 4.75005 15.855 4.39005 15.875 3.98005C15.895 3.57005 16.255 3.25005 16.665 3.27005C20.725 3.49005 22.375 5.44005 22.375 9.99005V15.9901C22.375 20.1701 21.245 22.7501 15.625 22.7501Z" />
</svg>
