<svg width="17" height="16" viewBox="0 0 17 16"  xmlns="http://www.w3.org/2000/svg">
<path d="M11.5423 15.1667H2.87565C2.23565 15.1667 1.70898 14.64 1.70898 14V5.33337C1.70898 2.38671 3.26232 0.833374 6.20898 0.833374H11.5423C14.489 0.833374 16.0423 2.38671 16.0423 5.33337V10.6667C16.0423 13.6134 14.489 15.1667 11.5423 15.1667ZM6.20898 1.83337C3.82232 1.83337 2.70898 2.94671 2.70898 5.33337V14C2.70898 14.0934 2.78232 14.1667 2.87565 14.1667H11.5423C13.929 14.1667 15.0423 13.0534 15.0423 10.6667V5.33337C15.0423 2.94671 13.929 1.83337 11.5423 1.83337H6.20898Z" />
<path d="M12.2077 6.83337H5.54102C5.26768 6.83337 5.04102 6.60671 5.04102 6.33337C5.04102 6.06004 5.26768 5.83337 5.54102 5.83337H12.2077C12.481 5.83337 12.7077 6.06004 12.7077 6.33337C12.7077 6.60671 12.481 6.83337 12.2077 6.83337Z" />
<path d="M10.2077 10.1666H5.54102C5.26768 10.1666 5.04102 9.93996 5.04102 9.66663C5.04102 9.39329 5.26768 9.16663 5.54102 9.16663H10.2077C10.481 9.16663 10.7077 9.39329 10.7077 9.66663C10.7077 9.93996 10.481 10.1666 10.2077 10.1666Z" />
</svg>
