<svg width="25" height="24" viewBox="0 0 25 24" fill="none" xmlns="http://www.w3.org/2000/svg">
<path d="M18.3753 7.91002C18.3453 7.91002 18.3253 7.91002 18.2953 7.91002H18.2453C16.3553 7.85002 14.9453 6.39001 14.9453 4.59001C14.9453 2.75001 16.4453 1.26001 18.2753 1.26001C20.1053 1.26001 21.6053 2.76001 21.6053 4.59001C21.5953 6.40001 20.1853 7.86001 18.3853 7.92001C18.3853 7.91001 18.3853 7.91002 18.3753 7.91002ZM18.2753 2.75002C17.2653 2.75002 16.4453 3.57002 16.4453 4.58002C16.4453 5.57002 17.2153 6.37002 18.2053 6.41002C18.2153 6.40002 18.2953 6.40002 18.3853 6.41002C19.3553 6.36002 20.1053 5.56002 20.1153 4.58002C20.1153 3.57002 19.2953 2.75002 18.2753 2.75002Z" />
<path d="M18.3855 15.28C17.9955 15.28 17.6055 15.25 17.2155 15.18C16.8055 15.11 16.5355 14.72 16.6055 14.31C16.6755 13.9 17.0655 13.63 17.4755 13.7C18.7055 13.91 20.0055 13.68 20.8755 13.1C21.3455 12.79 21.5955 12.4 21.5955 12.01C21.5955 11.62 21.3355 11.24 20.8755 10.93C20.0055 10.35 18.6855 10.12 17.4455 10.34C17.0355 10.42 16.6455 10.14 16.5755 9.73002C16.5055 9.32002 16.7755 8.93003 17.1855 8.86003C18.8155 8.57003 20.5055 8.88002 21.7055 9.68002C22.5855 10.27 23.0955 11.11 23.0955 12.01C23.0955 12.9 22.5955 13.75 21.7055 14.35C20.7955 14.95 19.6155 15.28 18.3855 15.28Z" />
<path d="M6.34547 7.91C6.33547 7.91 6.32547 7.91 6.32547 7.91C4.52547 7.85 3.11547 6.39 3.10547 4.59C3.10547 2.75 4.60547 1.25 6.43547 1.25C8.26547 1.25 9.76547 2.75 9.76547 4.58C9.76547 6.39 8.35547 7.85 6.55547 7.91L6.34547 7.16L6.41547 7.91C6.39547 7.91 6.36547 7.91 6.34547 7.91ZM6.44547 6.41C6.50547 6.41 6.55547 6.41 6.61547 6.42C7.50547 6.38 8.28547 5.58 8.28547 4.59C8.28547 3.58 7.46547 2.75999 6.45547 2.75999C5.44547 2.75999 4.62547 3.58 4.62547 4.59C4.62547 5.57 5.38547 6.36 6.35547 6.42C6.36547 6.41 6.40547 6.41 6.44547 6.41Z" />
<path d="M6.335 15.28C5.105 15.28 3.925 14.95 3.015 14.35C2.135 13.76 1.625 12.91 1.625 12.01C1.625 11.12 2.135 10.27 3.015 9.68002C4.215 8.88002 5.905 8.57003 7.535 8.86003C7.945 8.93003 8.215 9.32002 8.145 9.73002C8.075 10.14 7.685 10.42 7.275 10.34C6.035 10.12 4.725 10.35 3.845 10.93C3.375 11.24 3.125 11.62 3.125 12.01C3.125 12.4 3.385 12.79 3.845 13.1C4.715 13.68 6.015 13.91 7.245 13.7C7.655 13.63 8.045 13.91 8.115 14.31C8.185 14.72 7.915 15.11 7.505 15.18C7.115 15.25 6.725 15.28 6.335 15.28Z" />
<path d="M12.3753 15.38C12.3453 15.38 12.3253 15.38 12.2953 15.38H12.2453C10.3553 15.32 8.94531 13.86 8.94531 12.06C8.94531 10.22 10.4453 8.72998 12.2753 8.72998C14.1053 8.72998 15.6053 10.23 15.6053 12.06C15.5953 13.87 14.1853 15.33 12.3853 15.39C12.3853 15.38 12.3853 15.38 12.3753 15.38ZM12.2753 10.22C11.2653 10.22 10.4453 11.04 10.4453 12.05C10.4453 13.04 11.2153 13.84 12.2053 13.88C12.2153 13.87 12.2953 13.87 12.3853 13.88C13.3553 13.83 14.1053 13.03 14.1153 12.05C14.1153 11.05 13.2953 10.22 12.2753 10.22Z" />
<path d="M12.3743 22.76C11.1743 22.76 9.9743 22.45 9.0443 21.82C8.1643 21.23 7.6543 20.39 7.6543 19.49C7.6543 18.6 8.1543 17.74 9.0443 17.15C10.9143 15.91 13.8443 15.91 15.7043 17.15C16.5843 17.74 17.0943 18.58 17.0943 19.48C17.0943 20.37 16.5943 21.23 15.7043 21.82C14.7743 22.44 13.5743 22.76 12.3743 22.76ZM9.8743 18.41C9.4043 18.72 9.1543 19.11 9.1543 19.5C9.1543 19.89 9.4143 20.27 9.8743 20.58C11.2243 21.49 13.5143 21.49 14.8643 20.58C15.3343 20.27 15.5843 19.88 15.5843 19.49C15.5843 19.1 15.3243 18.72 14.8643 18.41C13.5243 17.5 11.2343 17.51 9.8743 18.41Z" />
</svg>
