<svg width="17" height="16" viewBox="0 0 17 16" fill="none" xmlns="http://www.w3.org/2000/svg">
<mask id="path-1-inside-1_301_24992" >
<path d="M14.6257 13.5H7.95898C7.68565 13.5 7.45898 13.2733 7.45898 13C7.45898 12.7267 7.68565 12.5 7.95898 12.5H14.6257C14.899 12.5 15.1257 12.7267 15.1257 13C15.1257 13.2733 14.899 13.5 14.6257 13.5Z"/>
</mask>
<path d="M14.6257 13.5H7.95898C7.68565 13.5 7.45898 13.2733 7.45898 13C7.45898 12.7267 7.68565 12.5 7.95898 12.5H14.6257C14.899 12.5 15.1257 12.7267 15.1257 13C15.1257 13.2733 14.899 13.5 14.6257 13.5Z" />
<path d="M14.6257 12.5H7.95898V14.5H14.6257V12.5ZM7.95898 12.5C8.23794 12.5 8.45898 12.721 8.45898 13H6.45898C6.45898 13.8256 7.13337 14.5 7.95898 14.5V12.5ZM8.45898 13C8.45898 13.279 8.23794 13.5 7.95898 13.5V11.5C7.13337 11.5 6.45898 12.1744 6.45898 13H8.45898ZM7.95898 13.5H14.6257V11.5H7.95898V13.5ZM14.6257 13.5C14.3467 13.5 14.1257 13.279 14.1257 13H16.1257C16.1257 12.1744 15.4513 11.5 14.6257 11.5V13.5ZM14.1257 13C14.1257 12.721 14.3467 12.5 14.6257 12.5V14.5C15.4513 14.5 16.1257 13.8256 16.1257 13H14.1257Z"  mask="url(#path-1-inside-1_301_24992)"/>
<path d="M14.6257 8.83337H7.95898C7.68565 8.83337 7.45898 8.60671 7.45898 8.33337C7.45898 8.06004 7.68565 7.83337 7.95898 7.83337H14.6257C14.899 7.83337 15.1257 8.06004 15.1257 8.33337C15.1257 8.60671 14.899 8.83337 14.6257 8.83337Z" />
<path d="M14.6257 4.16663H7.95898C7.68565 4.16663 7.45898 3.93996 7.45898 3.66663C7.45898 3.39329 7.68565 3.16663 7.95898 3.16663H14.6257C14.899 3.16663 15.1257 3.39329 15.1257 3.66663C15.1257 3.93996 14.899 4.16663 14.6257 4.16663Z" />
<path d="M3.29195 4.83329C3.16529 4.83329 3.03862 4.78663 2.93862 4.68663L2.27195 4.01996C2.07862 3.82663 2.07862 3.50663 2.27195 3.31329C2.46529 3.11996 2.78529 3.11996 2.97862 3.31329L3.29195 3.62663L4.93862 1.97996C5.13195 1.78663 5.45195 1.78663 5.64529 1.97996C5.83862 2.17329 5.83862 2.49329 5.64529 2.68663L3.64529 4.68663C3.54529 4.78663 3.41862 4.83329 3.29195 4.83329Z" />
<path d="M3.29195 9.50004C3.16529 9.50004 3.03862 9.45338 2.93862 9.35337L2.27195 8.68671C2.07862 8.49337 2.07862 8.17338 2.27195 7.98004C2.46529 7.78671 2.78529 7.78671 2.97862 7.98004L3.29195 8.29337L4.93862 6.64671C5.13195 6.45338 5.45195 6.45338 5.64529 6.64671C5.83862 6.84004 5.83862 7.16004 5.64529 7.35338L3.64529 9.35337C3.54529 9.45338 3.41862 9.50004 3.29195 9.50004Z" />
<path d="M3.29195 14.1667C3.16529 14.1667 3.03862 14.12 2.93862 14.02L2.27195 13.3533C2.07862 13.16 2.07862 12.84 2.27195 12.6467C2.46529 12.4533 2.78529 12.4533 2.97862 12.6467L3.29195 12.96L4.93862 11.3133C5.13195 11.12 5.45195 11.12 5.64529 11.3133C5.83862 11.5067 5.83862 11.8267 5.64529 12.02L3.64529 14.02C3.54529 14.12 3.41862 14.1667 3.29195 14.1667Z" />
</svg>
