<svg width="38" height="35" viewBox="0 0 38 35" fill="none" xmlns="http://www.w3.org/2000/svg">
<g filter="url(#filter0_d_301_31730)">
<g clip-path="url(#clip0_301_31730)">
<rect x="2" y="1" width="34" height="31" rx="6" fill="#A3AED0"/>
<path d="M25 17.25H13C12.59 17.25 12.25 16.91 12.25 16.5C12.25 16.09 12.59 15.75 13 15.75H25C25.41 15.75 25.75 16.09 25.75 16.5C25.75 16.91 25.41 17.25 25 17.25Z" fill="#F7F5FF"/>
<path d="M19 23.25C18.59 23.25 18.25 22.91 18.25 22.5V10.5C18.25 10.09 18.59 9.75 19 9.75C19.41 9.75 19.75 10.09 19.75 10.5V22.5C19.75 22.91 19.41 23.25 19 23.25Z" fill="#F7F5FF"/>
</g>
<rect x="2.5" y="1.5" width="33" height="30" rx="5.5" stroke="#E5E7EB"/>
</g>
<defs>
<filter id="filter0_d_301_31730" x="0" y="0" width="38" height="35" filterUnits="userSpaceOnUse" color-interpolation-filters="sRGB">
<feFlood flood-opacity="0" result="BackgroundImageFix"/>
<feColorMatrix in="SourceAlpha" type="matrix" values="0 0 0 0 0 0 0 0 0 0 0 0 0 0 0 0 0 0 127 0" result="hardAlpha"/>
<feOffset dy="1"/>
<feGaussianBlur stdDeviation="1"/>
<feComposite in2="hardAlpha" operator="out"/>
<feColorMatrix type="matrix" values="0 0 0 0 0 0 0 0 0 0 0 0 0 0 0 0 0 0 0.05 0"/>
<feBlend mode="normal" in2="BackgroundImageFix" result="effect1_dropShadow_301_31730"/>
<feBlend mode="normal" in="SourceGraphic" in2="effect1_dropShadow_301_31730" result="shape"/>
</filter>
<clipPath id="clip0_301_31730">
<rect x="2" y="1" width="34" height="31" rx="6" fill="white"/>
</clipPath>
</defs>
</svg>
