<svg width="24" height="25" viewBox="0 0 24 25" fill="none" xmlns="http://www.w3.org/2000/svg">
<path d="M3.93 17.1301C3.74 17.1301 3.55 17.0601 3.4 16.9101C3.11 16.6201 3.11 16.1401 3.4 15.8501L15.35 3.90012C15.64 3.61012 16.12 3.61012 16.41 3.90012C16.7 4.19012 16.7 4.67012 16.41 4.96012L4.46 16.9201C4.32 17.0601 4.12 17.1301 3.93 17.1301Z" fill="#4318FF"/>
<path d="M11.1 19.53C10.91 19.53 10.72 19.46 10.57 19.31C10.28 19.02 10.28 18.54 10.57 18.25L11.77 17.05C12.06 16.76 12.54 16.76 12.83 17.05C13.12 17.34 13.12 17.82 12.83 18.11L11.63 19.31C11.49 19.45 11.3 19.53 11.1 19.53Z" fill="#4318FF"/>
<path d="M13.79 16.8401C13.6 16.8401 13.41 16.7701 13.26 16.6201C12.97 16.3301 12.97 15.8501 13.26 15.5601L15.65 13.1701C15.94 12.8801 16.42 12.8801 16.71 13.1701C17 13.4601 17 13.9401 16.71 14.2301L14.32 16.6201C14.18 16.7601 13.98 16.8401 13.79 16.8401Z" fill="#4318FF"/>
<path d="M11.1 23.2499C10.12 23.2499 9.14004 22.6499 7.95004 21.4599L3.04004 16.5499C0.650036 14.1599 0.660036 12.6199 3.07004 10.2099L9.71004 3.56991C12.12 1.15991 13.66 1.14991 16.05 3.53991L20.96 8.44991C23.35 10.8399 23.34 12.3799 20.93 14.7899L14.29 21.4299C13.08 22.6399 12.09 23.2499 11.1 23.2499ZM12.9 3.24991C12.38 3.24991 11.72 3.67991 10.77 4.62991L4.13004 11.2699C3.18004 12.2199 2.75004 12.8799 2.75004 13.3899C2.75004 13.9099 3.15004 14.5399 4.10004 15.4899L9.01004 20.3999C9.96004 21.3499 10.58 21.7499 11.1 21.7499C11.1 21.7499 11.1 21.7499 11.11 21.7499C11.63 21.7499 12.28 21.3199 13.23 20.3699L19.87 13.7299C20.82 12.7799 21.25 12.1199 21.25 11.6099C21.25 11.0899 20.85 10.4599 19.9 9.50991L14.99 4.59991C14.05 3.64991 13.42 3.24991 12.9 3.24991Z" fill="#4318FF"/>
<path d="M22 23.25H2C1.59 23.25 1.25 22.91 1.25 22.5C1.25 22.09 1.59 21.75 2 21.75H22C22.41 21.75 22.75 22.09 22.75 22.5C22.75 22.91 22.41 23.25 22 23.25Z" fill="#4318FF"/>
</svg>
