<svg width="24" height="25" viewBox="0 0 24 25" fill="none" xmlns="http://www.w3.org/2000/svg">
<path d="M13.58 23.2498H6.21C3.47 23.2498 1.25 21.0198 1.25 18.2898V10.9698C1.25 8.22977 3.48 6.00977 6.21 6.00977H13.58C16.32 6.00977 18.54 8.23977 18.54 10.9698V18.2898C18.54 21.0198 16.31 23.2498 13.58 23.2498ZM6.21 7.50977C4.3 7.50977 2.75 9.05977 2.75 10.9698V18.2898C2.75 20.1998 4.3 21.7498 6.21 21.7498H13.58C15.49 21.7498 17.04 20.1998 17.04 18.2898V10.9698C17.04 9.05977 15.49 7.50977 13.58 7.50977H6.21Z" fill="#4318FF"/>
<path d="M5.5 5.25C5.09 5.25 4.75 4.91 4.75 4.5V2.75C4.75 2.34 5.09 2 5.5 2C5.91 2 6.25 2.34 6.25 2.75V4.5C6.25 4.91 5.91 5.25 5.5 5.25Z" fill="#4318FF"/>
<path d="M9.5 5.25C9.09 5.25 8.75 4.91 8.75 4.5V2.75C8.75 2.34 9.09 2 9.5 2C9.91 2 10.25 2.34 10.25 2.75V4.5C10.25 4.91 9.91 5.25 9.5 5.25Z" fill="#4318FF"/>
<path d="M13.5 5.25C13.09 5.25 12.75 4.91 12.75 4.5V2.75C12.75 2.34 13.09 2 13.5 2C13.91 2 14.25 2.34 14.25 2.75V4.5C14.25 4.91 13.91 5.25 13.5 5.25Z" fill="#4318FF"/>
<path d="M17.79 18.6202C17.38 18.6202 17.04 18.2802 17.04 17.8702V9.4502C17.04 9.0402 17.38 8.7002 17.79 8.7002C20.53 8.7002 22.75 10.9302 22.75 13.6602C22.75 16.3902 20.52 18.6202 17.79 18.6202ZM18.54 10.2802V17.0402C20.09 16.7002 21.25 15.3102 21.25 13.6602C21.25 12.0102 20.09 10.6202 18.54 10.2802Z" fill="#4318FF"/>
<path d="M17.51 13.25H2C1.59 13.25 1.25 12.91 1.25 12.5C1.25 12.09 1.59 11.75 2 11.75H17.51C17.92 11.75 18.26 12.09 18.26 12.5C18.26 12.91 17.92 13.25 17.51 13.25Z" fill="#4318FF"/>
</svg>
