<svg width="24" height="25" viewBox="0 0 24 25" fill="none" xmlns="http://www.w3.org/2000/svg">
<path d="M9.98996 23.2501C9.78996 23.2501 9.62996 23.2101 9.50996 23.1601C9.10996 23.0101 8.42996 22.5201 8.42996 20.9701V14.5201H6.08996C4.74996 14.5201 4.26996 13.8901 4.09996 13.5201C3.92996 13.1401 3.77996 12.3701 4.65996 11.3601L12.23 2.76013C13.25 1.60013 14.08 1.68013 14.48 1.83013C14.88 1.98013 15.56 2.47013 15.56 4.02013V10.4701H17.9C19.24 10.4701 19.72 11.1001 19.89 11.4701C20.06 11.8501 20.21 12.6201 19.33 13.6301L11.76 22.2301C11.05 23.0401 10.43 23.2501 9.98996 23.2501ZM13.93 3.24013C13.9 3.28013 13.69 3.38013 13.36 3.76013L5.78996 12.3601C5.50996 12.6801 5.46996 12.8801 5.46996 12.9201C5.48996 12.9301 5.66996 13.0301 6.08996 13.0301H9.17996C9.58996 13.0301 9.92996 13.3701 9.92996 13.7801V20.9801C9.92996 21.4801 10.02 21.7001 10.06 21.7601C10.09 21.7201 10.3 21.6201 10.63 21.2401L18.2 12.6401C18.48 12.3201 18.52 12.1201 18.52 12.0801C18.5 12.0701 18.32 11.9701 17.9 11.9701H14.81C14.4 11.9701 14.06 11.6301 14.06 11.2201V4.02013C14.07 3.52013 13.97 3.31013 13.93 3.24013Z" fill="#4318FF"/>
</svg>
