<svg width="24" height="25" viewBox="0 0 24 25" fill="none" xmlns="http://www.w3.org/2000/svg">
<path d="M16 23.25H8C4.98 23.25 3.25 21.52 3.25 18.5V8.75C3.25 5.6 4.85 4 8 4C8.41 4 8.75 4.34 8.75 4.75C8.75 5.15 8.91 5.53 9.19 5.81C9.47 6.09 9.85 6.25 10.25 6.25H13.75C14.58 6.25 15.25 5.58 15.25 4.75C15.25 4.34 15.59 4 16 4C19.15 4 20.75 5.6 20.75 8.75V18.5C20.75 21.52 19.02 23.25 16 23.25ZM7.34998 5.52C5.76998 5.65 4.75 6.36 4.75 8.75V18.5C4.75 20.72 5.78 21.75 8 21.75H16C18.22 21.75 19.25 20.72 19.25 18.5V8.75C19.25 6.36 18.23 5.66 16.65 5.52C16.31 6.8 15.14 7.75 13.75 7.75H10.25C9.45 7.75 8.70001 7.44 8.13 6.87C7.75 6.49 7.48998 6.03 7.34998 5.52Z" fill="#4318FF"/>
<path d="M13.75 7.75H10.25C9.45 7.75 8.7 7.44 8.13 6.87C7.56 6.29999 7.25 5.55 7.25 4.75C7.25 3.1 8.6 1.75 10.25 1.75H13.75C14.55 1.75 15.3 2.06 15.87 2.63C16.44 3.2 16.75 3.95 16.75 4.75C16.75 6.4 15.4 7.75 13.75 7.75ZM10.25 3.25C9.42 3.25 8.75 3.92 8.75 4.75C8.75 5.15 8.91 5.53 9.19 5.81C9.47 6.09 9.85 6.25 10.25 6.25H13.75C14.58 6.25 15.25 5.58 15.25 4.75C15.25 4.35 15.09 3.97 14.81 3.69C14.53 3.41 14.15 3.25 13.75 3.25H10.25Z" fill="#4318FF"/>
<path d="M12 14.25H8C7.59 14.25 7.25 13.91 7.25 13.5C7.25 13.09 7.59 12.75 8 12.75H12C12.41 12.75 12.75 13.09 12.75 13.5C12.75 13.91 12.41 14.25 12 14.25Z" fill="#4318FF"/>
<path d="M16 18.25H8C7.59 18.25 7.25 17.91 7.25 17.5C7.25 17.09 7.59 16.75 8 16.75H16C16.41 16.75 16.75 17.09 16.75 17.5C16.75 17.91 16.41 18.25 16 18.25Z" fill="#4318FF"/>
</svg>
