<svg width="24" height="25" viewBox="0 0 24 25" fill="none" xmlns="http://www.w3.org/2000/svg">
<path d="M12.0099 17.4998C11.1599 17.4998 10.2999 17.2798 9.62995 16.8498L3.60995 12.9198C2.48995 12.1898 1.81995 10.9598 1.81995 9.61979C1.81995 8.27979 2.48995 7.04979 3.60995 6.31979L9.63995 2.39979C10.9799 1.52979 13.0699 1.52979 14.3999 2.40979L20.3899 6.33979C21.4999 7.06979 22.1699 8.29979 22.1699 9.62979C22.1699 10.9598 21.4999 12.1898 20.3899 12.9198L14.3999 16.8498C13.7299 17.2898 12.8699 17.4998 12.0099 17.4998ZM12.0099 3.24979C11.4399 3.24979 10.8699 3.37979 10.4599 3.65979L4.43995 7.57979C3.73995 8.03979 3.32995 8.77979 3.32995 9.61979C3.32995 10.4598 3.72995 11.1998 4.43995 11.6598L10.4599 15.5898C11.2899 16.1298 12.7499 16.1298 13.5799 15.5898L19.5699 11.6598C20.2699 11.1998 20.6699 10.4598 20.6699 9.61979C20.6699 8.77979 20.2699 8.03979 19.5699 7.57979L13.5799 3.64979C13.1599 3.38979 12.5899 3.24979 12.0099 3.24979Z" fill="#4318FF"/>
<path d="M12.0001 23.2501C11.5601 23.2501 11.1101 23.1901 10.7501 23.0701L7.56006 22.0101C6.05006 21.5101 4.86006 19.8601 4.87006 18.2701L4.88006 13.5801C4.88006 13.1701 5.22006 12.8301 5.63006 12.8301C6.04006 12.8301 6.38006 13.1701 6.38006 13.5801L6.37006 18.2701C6.37006 19.2101 7.15006 20.2901 8.04006 20.5901L11.2301 21.6501C11.6301 21.7801 12.3701 21.7801 12.7701 21.6501L15.9601 20.5901C16.8501 20.2901 17.6301 19.2101 17.6301 18.2801V13.6401C17.6301 13.2301 17.9701 12.8901 18.3801 12.8901C18.7901 12.8901 19.1301 13.2301 19.1301 13.6401V18.2801C19.1301 19.8701 17.9501 21.5101 16.4401 22.0201L13.2501 23.0801C12.8901 23.1901 12.4401 23.2501 12.0001 23.2501Z" fill="#4318FF"/>
<path d="M21.4 16.25C20.99 16.25 20.65 15.91 20.65 15.5V9.5C20.65 9.09 20.99 8.75 21.4 8.75C21.81 8.75 22.15 9.09 22.15 9.5V15.5C22.15 15.91 21.81 16.25 21.4 16.25Z" fill="#4318FF"/>
</svg>
