<svg width="24" height="25" viewBox="0 0 24 25" fill="none" xmlns="http://www.w3.org/2000/svg">
<path d="M17.38 21.25H10.91C10.5 21.25 10.16 20.91 10.16 20.5C10.16 20.09 10.5 19.75 10.91 19.75H17.38C20.44 19.75 21.16 19.25 21.24 16.53C19.92 16.19 18.94 14.99 18.94 13.57C18.94 12.14 19.92 10.93 21.25 10.59V10.33C21.25 7.03996 20.67 6.45996 17.38 6.45996H11.75V12.5C11.75 12.91 11.41 13.25 11 13.25C10.59 13.25 10.25 12.91 10.25 12.5V5.70996C10.25 5.29996 10.59 4.95996 11 4.95996H17.38C21.5 4.95996 22.75 6.20996 22.75 10.33V11.25C22.75 11.66 22.41 12 22 12C21.14 12 20.44 12.7 20.44 13.57C20.44 14.43 21.14 15.13 22 15.13C22.41 15.13 22.75 15.47 22.75 15.88C22.75 20 21.5 21.25 17.38 21.25Z" fill="#4318FF"/>
<path d="M10.9999 21.2502H8.22995C6.20995 21.2502 5.16995 19.7302 4.21995 17.4502L4.02995 16.9902C3.95995 16.8102 3.95995 16.6002 4.03995 16.4202C4.11995 16.2402 4.26995 16.0902 4.44995 16.0202C4.84995 15.8602 5.15995 15.5502 5.32995 15.1602C5.49995 14.7602 5.49995 14.3202 5.32995 13.9202C4.99995 13.0802 4.04995 12.6902 3.20995 13.0202C3.01995 13.1002 2.81995 13.0902 2.62995 13.0102C2.44995 12.9302 2.29995 12.7802 2.22995 12.6002L2.05995 12.1702C0.459948 8.28022 1.15995 6.61022 5.04995 5.00022L7.68995 3.92022C8.06995 3.76022 8.50995 3.95022 8.66995 4.33022L11.6999 11.6702C11.7399 11.7602 11.7599 11.8602 11.7599 11.9602V14.5002C11.7599 14.9102 11.4199 15.2502 11.0099 15.2502C10.5999 15.2502 10.2599 14.9102 10.2599 14.5002V12.1002L7.55995 5.59022L5.61995 6.39022C2.53995 7.66022 2.16995 8.44022 3.37995 11.4402C4.76995 11.2402 6.16995 11.9902 6.71995 13.3402C7.03995 14.1102 7.03995 14.9602 6.70995 15.7302C6.48995 16.2602 6.12995 16.7102 5.66995 17.0402C6.62995 19.3002 7.32995 19.7502 8.21995 19.7502H10.2399V17.5002C10.2399 17.0902 10.5799 16.7502 10.9899 16.7502C11.3999 16.7502 11.7399 17.0902 11.7399 17.5002V20.5002C11.7499 20.9102 11.4099 21.2502 10.9999 21.2502Z" fill="#4318FF"/>
<path d="M8.17 21.25H8C7.59 21.25 7.25 20.91 7.25 20.5C7.25 20.09 7.59 19.75 8 19.75H8.17C8.58 19.75 8.92 20.09 8.92 20.5C8.92 20.91 8.58 21.25 8.17 21.25Z" fill="#4318FF"/>
</svg>
