<svg width="24" height="25" viewBox="0 0 24 25" fill="none" xmlns="http://www.w3.org/2000/svg">
<path d="M22 23.25H2C1.59 23.25 1.25 22.91 1.25 22.5C1.25 22.09 1.59 21.75 2 21.75H22C22.41 21.75 22.75 22.09 22.75 22.5C22.75 22.91 22.41 23.25 22 23.25Z" fill="#5C5353"/>
<path d="M20.8894 23.25C20.4794 23.25 20.1394 22.91 20.1394 22.5V13.5C20.1394 12.26 18.9794 11.25 17.5594 11.25H6.43937C5.01937 11.25 3.85938 12.26 3.85938 13.5V22.5C3.85938 22.91 3.51937 23.25 3.10938 23.25C2.69938 23.25 2.35938 22.91 2.35938 22.5V13.5C2.35938 11.43 4.18937 9.75 6.43937 9.75H17.5494C19.7994 9.75 21.6294 11.43 21.6294 13.5V22.5C21.6394 22.91 21.2994 23.25 20.8894 23.25Z" fill="#5C5353"/>
<path d="M18.4386 11.25C18.0286 11.25 17.6886 10.91 17.6886 10.5V7.67C17.6886 6.89 16.9386 6.25 16.0286 6.25H7.97859C7.05859 6.25 6.31859 6.89 6.31859 7.67V10.5C6.31859 10.91 5.97859 11.25 5.56859 11.25C5.15859 11.25 4.80859 10.91 4.80859 10.5V7.67C4.80859 6.06 6.22859 4.75 7.96859 4.75H16.0186C17.7586 4.75 19.1786 6.06 19.1786 7.67V10.5C19.1886 10.91 18.8486 11.25 18.4386 11.25Z" fill="#5C5353"/>
<path d="M17.3307 18.25C16.1707 18.25 15.2307 17.31 15.2307 16.15V15.84C15.2307 15.51 14.9607 15.24 14.6307 15.24C14.3007 15.24 14.0307 15.51 14.0307 15.84V16.15C14.0307 17.31 13.0907 18.25 11.9307 18.25C10.7707 18.25 9.83068 17.31 9.83068 16.15V15.84C9.83068 15.51 9.56068 15.24 9.23068 15.24C8.90068 15.24 8.63068 15.51 8.63068 15.84V16.15C8.63068 17.31 7.69068 18.25 6.53068 18.25C5.37068 18.25 4.43068 17.31 4.43068 16.15V15.82C4.43068 15.5 4.17068 15.23 3.84068 15.22H3.47068C3.06068 15.21 2.72068 14.87 2.73068 14.46C2.74068 14.05 3.07068 13.72 3.48068 13.72H3.49068H3.86068C5.00068 13.74 5.93068 14.68 5.93068 15.82V16.15C5.93068 16.48 6.20068 16.75 6.53068 16.75C6.86068 16.75 7.13068 16.48 7.13068 16.15V15.84C7.13068 14.68 8.07068 13.74 9.23068 13.74C10.3907 13.74 11.3307 14.68 11.3307 15.84V16.15C11.3307 16.48 11.6007 16.75 11.9307 16.75C12.2607 16.75 12.5307 16.48 12.5307 16.15V15.84C12.5307 14.68 13.4707 13.74 14.6307 13.74C15.7907 13.74 16.7307 14.68 16.7307 15.84V16.15C16.7307 16.48 17.0007 16.75 17.3307 16.75C17.6607 16.75 17.9307 16.48 17.9307 16.15V15.84C17.9307 14.68 18.8707 13.74 20.0307 13.74H20.4807C20.8907 13.74 21.2307 14.08 21.2307 14.49C21.2307 14.9 20.8907 15.24 20.4807 15.24H20.0307C19.7007 15.24 19.4307 15.51 19.4307 15.84V16.15C19.4307 17.31 18.4907 18.25 17.3307 18.25Z" fill="#5C5353"/>
<path d="M8 6.25C7.59 6.25 7.25 5.91 7.25 5.5V3.5C7.25 3.09 7.59 2.75 8 2.75C8.41 2.75 8.75 3.09 8.75 3.5V5.5C8.75 5.91 8.41 6.25 8 6.25Z" fill="#5C5353"/>
<path d="M16 6.25C15.59 6.25 15.25 5.91 15.25 5.5V3.5C15.25 3.09 15.59 2.75 16 2.75C16.41 2.75 16.75 3.09 16.75 3.5V5.5C16.75 5.91 16.41 6.25 16 6.25Z" fill="#5C5353"/>
<path d="M12 6.25C11.59 6.25 11.25 5.91 11.25 5.5V2.5C11.25 2.09 11.59 1.75 12 1.75C12.41 1.75 12.75 2.09 12.75 2.5V5.5C12.75 5.91 12.41 6.25 12 6.25Z" fill="#5C5353"/>
</svg>
