<svg width="16" height="17" viewBox="0 0 16 17" fill="none" xmlns="http://www.w3.org/2000/svg">
<path d="M7.9987 15.6666C4.04536 15.6666 0.832031 12.4533 0.832031 8.49998C0.832031 4.54665 4.04536 1.33331 7.9987 1.33331C11.952 1.33331 15.1654 4.54665 15.1654 8.49998C15.1654 12.4533 11.952 15.6666 7.9987 15.6666ZM7.9987 2.33331C4.5987 2.33331 1.83203 5.09998 1.83203 8.49998C1.83203 11.9 4.5987 14.6666 7.9987 14.6666C11.3987 14.6666 14.1654 11.9 14.1654 8.49998C14.1654 5.09998 11.3987 2.33331 7.9987 2.33331Z" fill="#6B7280"/>
<path d="M10.4751 11.12C10.3884 11.12 10.3017 11.1 10.2217 11.0467L8.15505 9.81332C7.64172 9.50665 7.26172 8.83332 7.26172 8.23999V5.50665C7.26172 5.23332 7.48839 5.00665 7.76172 5.00665C8.03505 5.00665 8.26172 5.23332 8.26172 5.50665V8.23999C8.26172 8.47999 8.46172 8.83332 8.66839 8.95332L10.7351 10.1867C10.9751 10.3267 11.0484 10.6333 10.9084 10.8733C10.8084 11.0333 10.6417 11.12 10.4751 11.12Z" fill="#292D32"/>
</svg>
