<svg width="24" height="25" viewBox="0 0 24 25" fill="none" xmlns="http://www.w3.org/2000/svg">
<path opacity="0.6" d="M17.79 10.97V12.5H2V10.97C2 8.65001 3.89 6.76001 6.21 6.76001H13.58C15.9 6.76001 17.79 8.65001 17.79 10.97Z" fill="#50D300"/>
<path opacity="0.4" d="M17.79 12.5V18.29C17.79 20.61 15.9 22.5 13.58 22.5H6.21C3.89 22.5 2 20.61 2 18.29V12.5H17.79Z" fill="#50D300"/>
<path d="M5.5 5.62C5.09 5.62 4.75 5.28 4.75 4.87V3.11999C4.75 2.71 5.09 2.37 5.5 2.37C5.91 2.37 6.25 2.71 6.25 3.11999V4.87C6.25 5.29 5.91 5.62 5.5 5.62Z" fill="#50D300"/>
<path d="M9.5 5.62C9.09 5.62 8.75 5.28 8.75 4.87V3.11999C8.75 2.71 9.09 2.37 9.5 2.37C9.91 2.37 10.25 2.71 10.25 3.11999V4.87C10.25 5.29 9.91 5.62 9.5 5.62Z" fill="#50D300"/>
<path d="M13.5 5.62C13.09 5.62 12.75 5.28 12.75 4.87V3.11999C12.75 2.71 13.09 2.37 13.5 2.37C13.91 2.37 14.25 2.71 14.25 3.11999V4.87C14.25 5.29 13.91 5.62 13.5 5.62Z" fill="#50D300"/>
<path d="M21.6517 14.82C21.6517 16.97 19.9117 18.71 17.7617 18.71V10.92C19.9017 10.92 21.6517 12.67 21.6517 14.82Z" fill="#50D300"/>
</svg>
