<svg width="24" height="25" viewBox="0 0 24 25" fill="none" xmlns="http://www.w3.org/2000/svg">
<path d="M20.01 19.76C19.82 19.76 19.63 19.69 19.48 19.54L14.53 14.59C14.24 14.3 14.24 13.82 14.53 13.53C14.82 13.24 15.3 13.24 15.59 13.53L20.54 18.48C20.83 18.77 20.83 19.25 20.54 19.54C20.39 19.69 20.2 19.76 20.01 19.76Z" fill="#3E3838"/>
<path d="M10.1114 18.93C9.38141 18.93 8.68141 18.64 8.17141 18.12L3.93141 13.88C2.86141 12.81 2.86141 11.06 3.93141 9.99003L11.0014 2.92005C12.0714 1.85005 13.8214 1.85005 14.8914 2.92005L19.1314 7.16004C19.6514 7.68004 19.9414 8.37005 19.9414 9.10005C19.9414 9.83005 19.6514 10.53 19.1314 11.04L12.0614 18.11C11.5414 18.65 10.8514 18.93 10.1114 18.93ZM12.9414 3.62004C12.6214 3.62004 12.3014 3.74003 12.0614 3.99003L4.99142 11.06C4.50142 11.55 4.50142 12.34 4.99142 12.83L9.23141 17.07C9.70141 17.54 10.5214 17.54 11.0014 17.07L18.0714 10C18.3114 9.76004 18.4414 9.45004 18.4414 9.12004C18.4414 8.79004 18.3114 8.47003 18.0714 8.24003L13.8314 4.00004C13.5814 3.74004 13.2614 3.62004 12.9414 3.62004Z" fill="#3E3838"/>
<path d="M8 22.25H2C1.59 22.25 1.25 21.91 1.25 21.5C1.25 21.09 1.59 20.75 2 20.75H8C8.41 20.75 8.75 21.09 8.75 21.5C8.75 21.91 8.41 22.25 8 22.25Z" fill="#3E3838"/>
<path d="M13.63 16.24C13.44 16.24 13.25 16.17 13.1 16.02L6.03 8.94998C5.74 8.65998 5.74 8.17999 6.03 7.88999C6.32 7.59999 6.8 7.59999 7.09 7.88999L14.16 14.96C14.45 15.25 14.45 15.73 14.16 16.02C14.02 16.17 13.82 16.24 13.63 16.24Z" fill="#3E3838"/>
</svg>
